ISO-10303-21;
HEADER;
FILE_DESCRIPTION(('Open CASCADE Model'),'2;1');
FILE_NAME('Open CASCADE Shape Model','2026-09-08T21:35:52',('Author'),(
    'Open CASCADE'),'Open CASCADE STEP processor 7.9','build123d',
  'Unknown');
FILE_SCHEMA(('AUTOMOTIVE_DESIGN { 1 0 10303 214 1 1 1 1 }'));
ENDSEC;
DATA;
#1 = APPLICATION_PROTOCOL_DEFINITION('international standard',
  'automotive_design',2000,#2);
#2 = APPLICATION_CONTEXT(
  'core data for automotive mechanical design processes');
#3 = SHAPE_DEFINITION_REPRESENTATION(#4,#10);
#4 = PRODUCT_DEFINITION_SHAPE('','',#5);
#5 = PRODUCT_DEFINITION('design','',#6,#9);
#6 = PRODUCT_DEFINITION_FORMATION('','',#7);
#7 = PRODUCT('COMPOUND','COMPOUND','',(#8));
#8 = PRODUCT_CONTEXT('',#2,'mechanical');
#9 = PRODUCT_DEFINITION_CONTEXT('part definition',#2,'design');
#10 = ADVANCED_BREP_SHAPE_REPRESENTATION('',(#11,#15),#1411);
#11 = AXIS2_PLACEMENT_3D('',#12,#13,#14);
#12 = CARTESIAN_POINT('',(0.,0.,0.));
#13 = DIRECTION('',(0.,0.,1.));
#14 = DIRECTION('',(1.,0.,-0.));
#15 = MANIFOLD_SOLID_BREP('',#16);
#16 = CLOSED_SHELL('',(#17,#105,#140,#144,#647,#1253,#1309,#1313,#1317,
    #1352,#1407));
#17 = ADVANCED_FACE('',(#18),#31,.T.);
#18 = FACE_BOUND('',#19,.T.);
#19 = EDGE_LOOP('',(#20,#54,#77,#104));
#20 = ORIENTED_EDGE('',*,*,#21,.F.);
#21 = EDGE_CURVE('',#22,#22,#24,.T.);
#22 = VERTEX_POINT('',#23);
#23 = CARTESIAN_POINT('',(55.,-1.714505518806E-15,2.));
#24 = SURFACE_CURVE('',#25,(#30,#42),.PCURVE_S1.);
#25 = CIRCLE('',#26,7.);
#26 = AXIS2_PLACEMENT_3D('',#27,#28,#29);
#27 = CARTESIAN_POINT('',(48.,0.,2.));
#28 = DIRECTION('',(0.,0.,1.));
#29 = DIRECTION('',(1.,0.,0.));
#30 = PCURVE('',#31,#36);
#31 = CYLINDRICAL_SURFACE('',#32,7.);
#32 = AXIS2_PLACEMENT_3D('',#33,#34,#35);
#33 = CARTESIAN_POINT('',(48.,0.,0.));
#34 = DIRECTION('',(0.,0.,1.));
#35 = DIRECTION('',(1.,0.,0.));
#36 = DEFINITIONAL_REPRESENTATION('',(#37),#41);
#37 = LINE('',#38,#39);
#38 = CARTESIAN_POINT('',(0.,2.));
#39 = VECTOR('',#40,1.);
#40 = DIRECTION('',(1.,0.));
#41 = ( GEOMETRIC_REPRESENTATION_CONTEXT(2) 
PARAMETRIC_REPRESENTATION_CONTEXT() REPRESENTATION_CONTEXT('2D SPACE',''
  ) );
#42 = PCURVE('',#43,#48);
#43 = PLANE('',#44);
#44 = AXIS2_PLACEMENT_3D('',#45,#46,#47);
#45 = CARTESIAN_POINT('',(48.,0.,2.));
#46 = DIRECTION('',(0.,0.,1.));
#47 = DIRECTION('',(1.,0.,0.));
#48 = DEFINITIONAL_REPRESENTATION('',(#49),#53);
#49 = CIRCLE('',#50,7.);
#50 = AXIS2_PLACEMENT_2D('',#51,#52);
#51 = CARTESIAN_POINT('',(0.,0.));
#52 = DIRECTION('',(1.,0.));
#53 = ( GEOMETRIC_REPRESENTATION_CONTEXT(2) 
PARAMETRIC_REPRESENTATION_CONTEXT() REPRESENTATION_CONTEXT('2D SPACE',''
  ) );
#54 = ORIENTED_EDGE('',*,*,#55,.F.);
#55 = EDGE_CURVE('',#56,#22,#58,.T.);
#56 = VERTEX_POINT('',#57);
#57 = CARTESIAN_POINT('',(55.,-1.714505518806E-15,0.));
#58 = SEAM_CURVE('',#59,(#63,#70),.PCURVE_S1.);
#59 = LINE('',#60,#61);
#60 = CARTESIAN_POINT('',(55.,-1.714505518806E-15,0.));
#61 = VECTOR('',#62,1.);
#62 = DIRECTION('',(0.,0.,1.));
#63 = PCURVE('',#31,#64);
#64 = DEFINITIONAL_REPRESENTATION('',(#65),#69);
#65 = LINE('',#66,#67);
#66 = CARTESIAN_POINT('',(0.,-0.));
#67 = VECTOR('',#68,1.);
#68 = DIRECTION('',(0.,1.));
#69 = ( GEOMETRIC_REPRESENTATION_CONTEXT(2) 
PARAMETRIC_REPRESENTATION_CONTEXT() REPRESENTATION_CONTEXT('2D SPACE',''
  ) );
#70 = PCURVE('',#31,#71);
#71 = DEFINITIONAL_REPRESENTATION('',(#72),#76);
#72 = LINE('',#73,#74);
#73 = CARTESIAN_POINT('',(6.28318530718,-0.));
#74 = VECTOR('',#75,1.);
#75 = DIRECTION('',(0.,1.));
#76 = ( GEOMETRIC_REPRESENTATION_CONTEXT(2) 
PARAMETRIC_REPRESENTATION_CONTEXT() REPRESENTATION_CONTEXT('2D SPACE',''
  ) );
#77 = ORIENTED_EDGE('',*,*,#78,.T.);
#78 = EDGE_CURVE('',#56,#56,#79,.T.);
#79 = SURFACE_CURVE('',#80,(#85,#92),.PCURVE_S1.);
#80 = CIRCLE('',#81,7.);
#81 = AXIS2_PLACEMENT_3D('',#82,#83,#84);
#82 = CARTESIAN_POINT('',(48.,0.,0.));
#83 = DIRECTION('',(0.,0.,1.));
#84 = DIRECTION('',(1.,0.,0.));
#85 = PCURVE('',#31,#86);
#86 = DEFINITIONAL_REPRESENTATION('',(#87),#91);
#87 = LINE('',#88,#89);
#88 = CARTESIAN_POINT('',(0.,0.));
#89 = VECTOR('',#90,1.);
#90 = DIRECTION('',(1.,0.));
#91 = ( GEOMETRIC_REPRESENTATION_CONTEXT(2) 
PARAMETRIC_REPRESENTATION_CONTEXT() REPRESENTATION_CONTEXT('2D SPACE',''
  ) );
#92 = PCURVE('',#93,#98);
#93 = PLANE('',#94);
#94 = AXIS2_PLACEMENT_3D('',#95,#96,#97);
#95 = CARTESIAN_POINT('',(48.,0.,0.));
#96 = DIRECTION('',(0.,0.,1.));
#97 = DIRECTION('',(1.,0.,0.));
#98 = DEFINITIONAL_REPRESENTATION('',(#99),#103);
#99 = CIRCLE('',#100,7.);
#100 = AXIS2_PLACEMENT_2D('',#101,#102);
#101 = CARTESIAN_POINT('',(0.,0.));
#102 = DIRECTION('',(1.,0.));
#103 = ( GEOMETRIC_REPRESENTATION_CONTEXT(2) 
PARAMETRIC_REPRESENTATION_CONTEXT() REPRESENTATION_CONTEXT('2D SPACE',''
  ) );
#104 = ORIENTED_EDGE('',*,*,#55,.T.);
#105 = ADVANCED_FACE('',(#106,#109),#43,.T.);
#106 = FACE_BOUND('',#107,.T.);
#107 = EDGE_LOOP('',(#108));
#108 = ORIENTED_EDGE('',*,*,#21,.T.);
#109 = FACE_BOUND('',#110,.T.);
#110 = EDGE_LOOP('',(#111));
#111 = ORIENTED_EDGE('',*,*,#112,.F.);
#112 = EDGE_CURVE('',#113,#113,#115,.T.);
#113 = VERTEX_POINT('',#114);
#114 = CARTESIAN_POINT('',(53.,-1.224646799147E-15,2.));
#115 = SURFACE_CURVE('',#116,(#121,#128),.PCURVE_S1.);
#116 = CIRCLE('',#117,5.);
#117 = AXIS2_PLACEMENT_3D('',#118,#119,#120);
#118 = CARTESIAN_POINT('',(48.,0.,2.));
#119 = DIRECTION('',(0.,0.,1.));
#120 = DIRECTION('',(1.,0.,-0.));
#121 = PCURVE('',#43,#122);
#122 = DEFINITIONAL_REPRESENTATION('',(#123),#127);
#123 = CIRCLE('',#124,5.);
#124 = AXIS2_PLACEMENT_2D('',#125,#126);
#125 = CARTESIAN_POINT('',(0.,0.));
#126 = DIRECTION('',(1.,0.));
#127 = ( GEOMETRIC_REPRESENTATION_CONTEXT(2) 
PARAMETRIC_REPRESENTATION_CONTEXT() REPRESENTATION_CONTEXT('2D SPACE',''
  ) );
#128 = PCURVE('',#129,#134);
#129 = CYLINDRICAL_SURFACE('',#130,5.);
#130 = AXIS2_PLACEMENT_3D('',#131,#132,#133);
#131 = CARTESIAN_POINT('',(48.,0.,2.));
#132 = DIRECTION('',(0.,0.,1.));
#133 = DIRECTION('',(1.,0.,-0.));
#134 = DEFINITIONAL_REPRESENTATION('',(#135),#139);
#135 = LINE('',#136,#137);
#136 = CARTESIAN_POINT('',(0.,0.));
#137 = VECTOR('',#138,1.);
#138 = DIRECTION('',(1.,0.));
#139 = ( GEOMETRIC_REPRESENTATION_CONTEXT(2) 
PARAMETRIC_REPRESENTATION_CONTEXT() REPRESENTATION_CONTEXT('2D SPACE',''
  ) );
#140 = ADVANCED_FACE('',(#141),#93,.F.);
#141 = FACE_BOUND('',#142,.T.);
#142 = EDGE_LOOP('',(#143));
#143 = ORIENTED_EDGE('',*,*,#78,.F.);
#144 = ADVANCED_FACE('',(#145),#129,.T.);
#145 = FACE_BOUND('',#146,.T.);
#146 = EDGE_LOOP('',(#147,#390,#411,#412,#413));
#147 = ORIENTED_EDGE('',*,*,#148,.F.);
#148 = EDGE_CURVE('',#149,#151,#153,.T.);
#149 = VERTEX_POINT('',#150);
#150 = CARTESIAN_POINT('',(53.,-1.347111479062E-15,25.));
#151 = VERTEX_POINT('',#152);
#152 = CARTESIAN_POINT('',(43.,-1.469576158977E-15,25.));
#153 = SURFACE_CURVE('',#154,(#229,#307),.PCURVE_S1.);
#154 = B_SPLINE_CURVE_WITH_KNOTS('',7,(#155,#156,#157,#158,#159,#160,
    #161,#162,#163,#164,#165,#166,#167,#168,#169,#170,#171,#172,#173,
    #174,#175,#176,#177,#178,#179,#180,#181,#182,#183,#184,#185,#186,
    #187,#188,#189,#190,#191,#192,#193,#194,#195,#196,#197,#198,#199,
    #200,#201,#202,#203,#204,#205,#206,#207,#208,#209,#210,#211,#212,
    #213,#214,#215,#216,#217,#218,#219,#220,#221,#222,#223,#224,#225,
    #226,#227,#228),.UNSPECIFIED.,.F.,.F.,(8,6,6,6,6,6,6,6,6,6,6,6,8),(
    0.,9.90741141514E-02,0.150945883397,0.287443638105,0.415408243674,
    0.445619869758,0.499981002999,0.554510871172,0.584666313805,
    0.712308541395,0.849923527586,0.899864764081,1.),.UNSPECIFIED.);
#155 = CARTESIAN_POINT('',(53.,-6.123233995737E-16,25.));
#156 = CARTESIAN_POINT('',(53.,0.292711641127,25.));
#157 = CARTESIAN_POINT('',(52.980008181514,0.582586328653,
    25.016660098098));
#158 = CARTESIAN_POINT('',(52.940720801646,0.866694510928,25.04939871651
    ));
#159 = CARTESIAN_POINT('',(52.883525945826,1.14215519285,25.096934017026
    ));
#160 = CARTESIAN_POINT('',(52.810493712693,1.406251398394,
    25.157305740653));
#161 = CARTESIAN_POINT('',(52.724404145724,1.656478677009,
    25.227921110137));
#162 = CARTESIAN_POINT('',(52.57876465756,2.013066055381,25.346307749414
    ));
#163 = CARTESIAN_POINT('',(52.525815359206,2.131896473084,
    25.389174834697));
#164 = CARTESIAN_POINT('',(52.470222090114,2.247074542349,
    25.433975385208));
#165 = CARTESIAN_POINT('',(52.412218181342,2.358665574353,
    25.480477608861));
#166 = CARTESIAN_POINT('',(52.352013186642,2.466743331342,25.52846844886
    ));
#167 = CARTESIAN_POINT('',(52.28979284763,2.571389801862,25.577753445044
    ));
#168 = CARTESIAN_POINT('',(52.057112350262,2.939274061463,
    25.760789758334));
#169 = CARTESIAN_POINT('',(51.87536360664,3.183202147351,25.90140760249)
  );
#170 = CARTESIAN_POINT('',(51.683268688179,3.406062809239,
    26.046905386263));
#171 = CARTESIAN_POINT('',(51.482620796132,3.609550527626,
    26.194921472191));
#172 = CARTESIAN_POINT('',(51.274343236016,3.795292288806,
    26.343640099169));
#173 = CARTESIAN_POINT('',(51.0586268809,3.964657975943,26.491530260796)
  );
#174 = CARTESIAN_POINT('',(50.625330996828,4.262912194923,
    26.773066816896));
#175 = CARTESIAN_POINT('',(50.409215747967,4.393321719066,
    26.906697567334));
#176 = CARTESIAN_POINT('',(50.186404554079,4.510654507096,
    27.036244357623));
#177 = CARTESIAN_POINT('',(49.95658612899,4.61514534263,27.159808254442)
  );
#178 = CARTESIAN_POINT('',(49.719545679725,4.7065908574,27.274807489949)
  );
#179 = CARTESIAN_POINT('',(49.475079442864,4.784546211541,
    27.377875056782));
#180 = CARTESIAN_POINT('',(49.163126036145,4.863220513801,
    27.485780768241));
#181 = CARTESIAN_POINT('',(49.103117719049,4.877445902987,27.50550631903
    ));
#182 = CARTESIAN_POINT('',(49.042703094629,4.890853605532,
    27.524289122482));
#183 = CARTESIAN_POINT('',(48.981898437682,4.903428908039,
    27.542072712703));
#184 = CARTESIAN_POINT('',(48.920717325365,4.915158220683,
    27.558802677602));
#185 = CARTESIAN_POINT('',(48.859170641216,4.926028613083,
    27.574426848052));
#186 = CARTESIAN_POINT('',(48.685879825119,4.954018526094,
    27.614929557843));
#187 = CARTESIAN_POINT('',(48.573220376969,4.969206272967,27.63724943751
    ));
#188 = CARTESIAN_POINT('',(48.459591587739,4.981463892183,
    27.655490721592));
#189 = CARTESIAN_POINT('',(48.345246888022,4.990711786788,
    27.669372673229));
#190 = CARTESIAN_POINT('',(48.230403891444,4.996900271953,
    27.678702206428));
#191 = CARTESIAN_POINT('',(48.115258641533,5.,27.683375209645));
#192 = CARTESIAN_POINT('',(47.884383599939,5.,27.683375209645));
#193 = CARTESIAN_POINT('',(47.768882265104,4.996880999239,
    27.678673152014));
#194 = CARTESIAN_POINT('',(47.653686131876,4.990654165039,
    27.669285804516));
#195 = CARTESIAN_POINT('',(47.53899263513,4.981349191622,27.655318549417
    ));
#196 = CARTESIAN_POINT('',(47.425021090256,4.96901629872,27.63696673828)
  );
#197 = CARTESIAN_POINT('',(47.31202713044,4.953735971679,27.614514341921
    ));
#198 = CARTESIAN_POINT('',(47.138540424851,4.925627262514,
    27.573849692328));
#199 = CARTESIAN_POINT('',(47.077120433911,4.914750081599,27.55821972255
    ));
#200 = CARTESIAN_POINT('',(47.016065121711,4.903017567235,
    27.541489495096));
#201 = CARTESIAN_POINT('',(46.955385246005,4.890442576613,27.52371091293
    ));
#202 = CARTESIAN_POINT('',(46.89509423094,4.877038615902,27.504938085991
    ));
#203 = CARTESIAN_POINT('',(46.835208171065,4.86282029893,27.485227144104
    ));
#204 = CARTESIAN_POINT('',(46.524053128136,4.784241859615,
    27.377477881923));
#205 = CARTESIAN_POINT('',(46.280223256763,4.70644784868,27.274644231533
    ));
#206 = CARTESIAN_POINT('',(46.043782400372,4.615232099362,
    27.159944772106));
#207 = CARTESIAN_POINT('',(45.814527706345,4.511036165745,
    27.036719885034));
#208 = CARTESIAN_POINT('',(45.592245490518,4.394061885326,
    26.907533022719));
#209 = CARTESIAN_POINT('',(45.376626766071,4.264077511415,
    26.774271346511));
#210 = CARTESIAN_POINT('',(44.941896839457,3.96521282074,26.491942558517
    ));
#211 = CARTESIAN_POINT('',(44.724420960867,3.794494098141,
    26.342838668854));
#212 = CARTESIAN_POINT('',(44.514501402911,3.607135209759,
    26.192895651584));
#213 = CARTESIAN_POINT('',(44.312332244469,3.401728509094,
    26.043677086571));
#214 = CARTESIAN_POINT('',(44.118865836046,3.176601359494,
    25.897044660752));
#215 = CARTESIAN_POINT('',(43.935956028523,2.930014249578,
    25.755428354803));
#216 = CARTESIAN_POINT('',(43.704998537812,2.562483506589,
    25.573620067388));
#217 = CARTESIAN_POINT('',(43.645231706602,2.461516026671,
    25.526259986202));
#218 = CARTESIAN_POINT('',(43.587341635644,2.357364658218,
    25.480108575939));
#219 = CARTESIAN_POINT('',(43.531494608185,2.249956203031,25.43533977318
    ));
#220 = CARTESIAN_POINT('',(43.477877409165,2.139224524906,
    25.392143529111));
#221 = CARTESIAN_POINT('',(43.426697294634,2.025110734042,
    25.350725925536));
#222 = CARTESIAN_POINT('',(43.28090574813,1.671873714695,25.232276525842
    ));
#223 = CARTESIAN_POINT('',(43.193246494766,1.419723344747,
    25.160397214079));
#224 = CARTESIAN_POINT('',(43.118833849417,1.153423734628,
    25.098894988614));
#225 = CARTESIAN_POINT('',(43.060514849565,0.875489973543,
    25.050428367016));
#226 = CARTESIAN_POINT('',(43.020421577121,0.588659242833,
    25.017018254748));
#227 = CARTESIAN_POINT('',(43.,0.295841161315,25.));
#228 = CARTESIAN_POINT('',(43.,9.184850993605E-16,25.));
#229 = PCURVE('',#129,#230);
#230 = DEFINITIONAL_REPRESENTATION('',(#231),#306);
#231 = B_SPLINE_CURVE_WITH_KNOTS('',7,(#232,#233,#234,#235,#236,#237,
    #238,#239,#240,#241,#242,#243,#244,#245,#246,#247,#248,#249,#250,
    #251,#252,#253,#254,#255,#256,#257,#258,#259,#260,#261,#262,#263,
    #264,#265,#266,#267,#268,#269,#270,#271,#272,#273,#274,#275,#276,
    #277,#278,#279,#280,#281,#282,#283,#284,#285,#286,#287,#288,#289,
    #290,#291,#292,#293,#294,#295,#296,#297,#298,#299,#300,#301,#302,
    #303,#304,#305),.UNSPECIFIED.,.F.,.F.,(8,6,6,6,6,6,6,6,6,6,6,6,8),(
    0.,9.90741141514E-02,0.150945883397,0.287443638105,0.415408243674,
    0.445619869758,0.499981002999,0.554510871172,0.584666313805,
    0.712308541395,0.849923527586,0.899864764081,1.),.UNSPECIFIED.);
#232 = CARTESIAN_POINT('',(0.,23.));
#233 = CARTESIAN_POINT('',(5.854232822534E-02,23.));
#234 = CARTESIAN_POINT('',(0.116517265184,23.016660098098));
#235 = CARTESIAN_POINT('',(0.173666621849,23.04939871651));
#236 = CARTESIAN_POINT('',(0.229713235912,23.096934017026));
#237 = CARTESIAN_POINT('',(0.284345133046,23.157305740653));
#238 = CARTESIAN_POINT('',(0.33718555223,23.227921110137));
#239 = CARTESIAN_POINT('',(0.414222016045,23.346307749414));
#240 = CARTESIAN_POINT('',(0.440227859286,23.389174834697));
#241 = CARTESIAN_POINT('',(0.465787674371,23.433975385208));
#242 = CARTESIAN_POINT('',(0.490921454368,23.480477608861));
#243 = CARTESIAN_POINT('',(0.515648609729,23.52846844886));
#244 = CARTESIAN_POINT('',(0.539988702076,23.577753445044));
#245 = CARTESIAN_POINT('',(0.627047083021,23.760789758334));
#246 = CARTESIAN_POINT('',(0.687708305525,23.90140760249));
#247 = CARTESIAN_POINT('',(0.746324655662,24.046905386263));
#248 = CARTESIAN_POINT('',(0.803259273749,24.194921472191));
#249 = CARTESIAN_POINT('',(0.858896287779,24.343640099169));
#250 = CARTESIAN_POINT('',(0.913640219019,24.491530260796));
#251 = CARTESIAN_POINT('',(1.018844953188,24.773066816896));
#252 = CARTESIAN_POINT('',(1.069236976989,24.906697567334));
#253 = CARTESIAN_POINT('',(1.119464796918,25.036244357623));
#254 = CARTESIAN_POINT('',(1.169801759985,25.159808254442));
#255 = CARTESIAN_POINT('',(1.220473205888,25.274807489949));
#256 = CARTESIAN_POINT('',(1.271694680298,25.377875056782));
#257 = CARTESIAN_POINT('',(1.336038933747,25.485780768241));
#258 = CARTESIAN_POINT('',(1.348371951219,25.50550631903));
#259 = CARTESIAN_POINT('',(1.360746805643,25.524289122482));
#260 = CARTESIAN_POINT('',(1.373162744927,25.542072712703));
#261 = CARTESIAN_POINT('',(1.385619686336,25.558802677602));
#262 = CARTESIAN_POINT('',(1.398118195934,25.574426848052));
#263 = CARTESIAN_POINT('',(1.433225541133,25.614929557843));
#264 = CARTESIAN_POINT('',(1.455953489461,25.63724943751));
#265 = CARTESIAN_POINT('',(1.478798167466,25.655490721592));
#266 = CARTESIAN_POINT('',(1.5017269325,25.669372673229));
#267 = CARTESIAN_POINT('',(1.524715552266,25.678702206428));
#268 = CARTESIAN_POINT('',(1.547744598488,25.683375209645));
#269 = CARTESIAN_POINT('',(1.593919606807,25.683375209645));
#270 = CARTESIAN_POINT('',(1.617019869939,25.678673152014));
#271 = CARTESIAN_POINT('',(1.640079304182,25.669285804516));
#272 = CARTESIAN_POINT('',(1.66307838516,25.655318549417));
#273 = CARTESIAN_POINT('',(1.685992716404,25.63696673828));
#274 = CARTESIAN_POINT('',(1.708789373596,25.614514341921));
#275 = CARTESIAN_POINT('',(1.743939188131,25.573849692328));
#276 = CARTESIAN_POINT('',(1.756412990735,25.55821972255));
#277 = CARTESIAN_POINT('',(1.768845356405,25.541489495096));
#278 = CARTESIAN_POINT('',(1.781236858829,25.52371091293));
#279 = CARTESIAN_POINT('',(1.793587429316,25.504938085991));
#280 = CARTESIAN_POINT('',(1.805896336526,25.485227144104));
#281 = CARTESIAN_POINT('',(1.870081079843,25.377477881923));
#282 = CARTESIAN_POINT('',(1.921172258812,25.274644231533));
#283 = CARTESIAN_POINT('',(1.971716345536,25.159944772106));
#284 = CARTESIAN_POINT('',(2.021927415114,25.036719885034));
#285 = CARTESIAN_POINT('',(2.072029225582,24.90753302272));
#286 = CARTESIAN_POINT('',(2.122293015789,24.774271346511));
#287 = CARTESIAN_POINT('',(2.227803245136,24.491942558517));
#288 = CARTESIAN_POINT('',(2.282988433908,24.342838668854));
#289 = CARTESIAN_POINT('',(2.339081570899,24.192895651584));
#290 = CARTESIAN_POINT('',(2.396497582366,24.043677086571));
#291 = CARTESIAN_POINT('',(2.455630279718,23.897044660752));
#292 = CARTESIAN_POINT('',(2.516851522185,23.755428354803));
#293 = CARTESIAN_POINT('',(2.603666315754,23.573620067388));
#294 = CARTESIAN_POINT('',(2.627124175748,23.526259986202));
#295 = CARTESIAN_POINT('',(2.65094168161,23.480108575939));
#296 = CARTESIAN_POINT('',(2.675136358624,23.43533977318));
#297 = CARTESIAN_POINT('',(2.699725608047,23.392143529111));
#298 = CARTESIAN_POINT('',(2.724727315477,23.350725925536));
#299 = CARTESIAN_POINT('',(2.801155469155,23.232276525842));
#300 = CARTESIAN_POINT('',(2.854459840881,23.160397214079));
#301 = CARTESIAN_POINT('',(2.909585747318,23.098894988614));
#302 = CARTESIAN_POINT('',(2.966156313137,23.050428367016));
#303 = CARTESIAN_POINT('',(3.023860806334,23.017018254748));
#304 = CARTESIAN_POINT('',(3.082424421327,23.));
#305 = CARTESIAN_POINT('',(3.14159265359,23.));
#306 = ( GEOMETRIC_REPRESENTATION_CONTEXT(2) 
PARAMETRIC_REPRESENTATION_CONTEXT() REPRESENTATION_CONTEXT('2D SPACE',''
  ) );
#307 = PCURVE('',#308,#313);
#308 = CYLINDRICAL_SURFACE('',#309,6.);
#309 = AXIS2_PLACEMENT_3D('',#310,#311,#312);
#310 = CARTESIAN_POINT('',(-54.,0.,31.));
#311 = DIRECTION('',(1.,0.,2.22044604925E-16));
#312 = DIRECTION('',(2.22044604925E-16,0.,-1.));
#313 = DEFINITIONAL_REPRESENTATION('',(#314),#389);
#314 = B_SPLINE_CURVE_WITH_KNOTS('',7,(#315,#316,#317,#318,#319,#320,
    #321,#322,#323,#324,#325,#326,#327,#328,#329,#330,#331,#332,#333,
    #334,#335,#336,#337,#338,#339,#340,#341,#342,#343,#344,#345,#346,
    #347,#348,#349,#350,#351,#352,#353,#354,#355,#356,#357,#358,#359,
    #360,#361,#362,#363,#364,#365,#366,#367,#368,#369,#370,#371,#372,
    #373,#374,#375,#376,#377,#378,#379,#380,#381,#382,#383,#384,#385,
    #386,#387,#388),.UNSPECIFIED.,.F.,.F.,(8,6,6,6,6,6,6,6,6,6,6,6,8),(
    0.,9.90741141514E-02,0.150945883397,0.287443638105,0.415408243674,
    0.445619869758,0.499981002999,0.554510871172,0.584666313805,
    0.712308541395,0.849923527586,0.899864764081,1.),.UNSPECIFIED.);
#315 = CARTESIAN_POINT('',(0.,107.));
#316 = CARTESIAN_POINT('',(4.878527352112E-02,107.));
#317 = CARTESIAN_POINT('',(9.709778134434E-02,106.98000818151));
#318 = CARTESIAN_POINT('',(0.144638586557,106.94072080164));
#319 = CARTESIAN_POINT('',(0.191101356376,106.88352594582));
#320 = CARTESIAN_POINT('',(0.236158905612,106.81049371269));
#321 = CARTESIAN_POINT('',(0.279447531418,106.72440414572));
#322 = CARTESIAN_POINT('',(0.342068515382,106.57876465756));
#323 = CARTESIAN_POINT('',(0.363115920071,106.5258153592));
#324 = CARTESIAN_POINT('',(0.383703401042,106.47022209011));
#325 = CARTESIAN_POINT('',(0.403842211878,106.41221818134));
#326 = CARTESIAN_POINT('',(0.423543223301,106.35201318664));
#327 = CARTESIAN_POINT('',(0.442817334384,106.28979284763));
#328 = CARTESIAN_POINT('',(0.51130113629,106.05711235026));
#329 = CARTESIAN_POINT('',(0.558139258367,105.87536360664));
#330 = CARTESIAN_POINT('',(0.602395590667,105.68326868817));
#331 = CARTESIAN_POINT('',(0.644246627194,105.48262079613));
#332 = CARTESIAN_POINT('',(0.683844317997,105.27434323601));
#333 = CARTESIAN_POINT('',(0.721290683222,105.0586268809));
#334 = CARTESIAN_POINT('',(0.789648079709,104.62533099682));
#335 = CARTESIAN_POINT('',(0.820741651056,104.40921574796));
#336 = CARTESIAN_POINT('',(0.849842242428,104.18640455407));
#337 = CARTESIAN_POINT('',(0.876788150357,103.95658612899));
#338 = CARTESIAN_POINT('',(0.90126388197,103.71954567972));
#339 = CARTESIAN_POINT('',(0.922798614627,103.47507944286));
#340 = CARTESIAN_POINT('',(0.945055503949,103.16312603614));
#341 = CARTESIAN_POINT('',(0.949108770713,103.10311771904));
#342 = CARTESIAN_POINT('',(0.9529549136,103.04270309462));
#343 = CARTESIAN_POINT('',(0.956584955114,102.98189843768));
#344 = CARTESIAN_POINT('',(0.959990259062,102.92071732536));
#345 = CARTESIAN_POINT('',(0.963162519773,102.85917064121));
#346 = CARTESIAN_POINT('',(0.971368047602,102.68587982511));
#347 = CARTESIAN_POINT('',(0.975867449364,102.57322037696));
#348 = CARTESIAN_POINT('',(0.979530237164,102.45959158773));
#349 = CARTESIAN_POINT('',(0.98231027423,102.34524688802));
#350 = CARTESIAN_POINT('',(0.984176183432,102.23040389144));
#351 = CARTESIAN_POINT('',(0.985110783338,102.11525864153));
#352 = CARTESIAN_POINT('',(0.985110783338,101.88438359993));
#353 = CARTESIAN_POINT('',(0.984170372567,101.7688822651));
#354 = CARTESIAN_POINT('',(0.982292900445,101.65368613187));
#355 = CARTESIAN_POINT('',(0.979495757236,101.53899263513));
#356 = CARTESIAN_POINT('',(0.975810683592,101.42502109025));
#357 = CARTESIAN_POINT('',(0.971284343754,101.31202713044));
#358 = CARTESIAN_POINT('',(0.96304535572,101.13854042485));
#359 = CARTESIAN_POINT('',(0.959871655453,101.07712043391));
#360 = CARTESIAN_POINT('',(0.956466009358,101.01606512171));
#361 = CARTESIAN_POINT('',(0.952836679308,100.955385246));
#362 = CARTESIAN_POINT('',(0.94899225194,100.89509423094));
#363 = CARTESIAN_POINT('',(0.9449416493,100.83520817106));
#364 = CARTESIAN_POINT('',(0.922715241942,100.52405312813));
#365 = CARTESIAN_POINT('',(0.901227811795,100.28022325676));
#366 = CARTESIAN_POINT('',(0.876814942527,100.04378240037));
#367 = CARTESIAN_POINT('',(0.849943707354,99.814527706345));
#368 = CARTESIAN_POINT('',(0.820927428351,99.592245490518));
#369 = CARTESIAN_POINT('',(0.789927121943,99.376626766071));
#370 = CARTESIAN_POINT('',(0.721405096315,98.941896839457));
#371 = CARTESIAN_POINT('',(0.683656448682,98.724420960867));
#372 = CARTESIAN_POINT('',(0.643722288198,98.514501402911));
#373 = CARTESIAN_POINT('',(0.601497000965,98.312332244469));
#374 = CARTESIAN_POINT('',(0.556823908333,98.118865836046));
#375 = CARTESIAN_POINT('',(0.509521498373,97.935956028523));
#376 = CARTESIAN_POINT('',(0.441181437644,97.704998537812));
#377 = CARTESIAN_POINT('',(0.422598268665,97.645231706602));
#378 = CARTESIAN_POINT('',(0.403618928535,97.587341635644));
#379 = CARTESIAN_POINT('',(0.384233635186,97.531494608185));
#380 = CARTESIAN_POINT('',(0.364432627318,97.477877409165));
#381 = CARTESIAN_POINT('',(0.344205823515,97.426697294634));
#382 = CARTESIAN_POINT('',(0.282111215562,97.28090574813));
#383 = CARTESIAN_POINT('',(0.238457826289,97.193246494766));
#384 = CARTESIAN_POINT('',(0.193002574971,97.118833849417));
#385 = CARTESIAN_POINT('',(0.146110640862,97.060514849565));
#386 = CARTESIAN_POINT('',(9.810993581908E-02,97.020421577121));
#387 = CARTESIAN_POINT('',(4.930686021922E-02,97.));
#388 = CARTESIAN_POINT('',(0.,97.));
#389 = ( GEOMETRIC_REPRESENTATION_CONTEXT(2) 
PARAMETRIC_REPRESENTATION_CONTEXT() REPRESENTATION_CONTEXT('2D SPACE',''
  ) );
#390 = ORIENTED_EDGE('',*,*,#391,.F.);
#391 = EDGE_CURVE('',#113,#149,#392,.T.);
#392 = SEAM_CURVE('',#393,(#397,#404),.PCURVE_S1.);
#393 = LINE('',#394,#395);
#394 = CARTESIAN_POINT('',(53.,-1.224646799147E-15,2.));
#395 = VECTOR('',#396,1.);
#396 = DIRECTION('',(0.,0.,1.));
#397 = PCURVE('',#129,#398);
#398 = DEFINITIONAL_REPRESENTATION('',(#399),#403);
#399 = LINE('',#400,#401);
#400 = CARTESIAN_POINT('',(6.28318530718,-0.));
#401 = VECTOR('',#402,1.);
#402 = DIRECTION('',(0.,1.));
#403 = ( GEOMETRIC_REPRESENTATION_CONTEXT(2) 
PARAMETRIC_REPRESENTATION_CONTEXT() REPRESENTATION_CONTEXT('2D SPACE',''
  ) );
#404 = PCURVE('',#129,#405);
#405 = DEFINITIONAL_REPRESENTATION('',(#406),#410);
#406 = LINE('',#407,#408);
#407 = CARTESIAN_POINT('',(0.,-0.));
#408 = VECTOR('',#409,1.);
#409 = DIRECTION('',(0.,1.));
#410 = ( GEOMETRIC_REPRESENTATION_CONTEXT(2) 
PARAMETRIC_REPRESENTATION_CONTEXT() REPRESENTATION_CONTEXT('2D SPACE',''
  ) );
#411 = ORIENTED_EDGE('',*,*,#112,.T.);
#412 = ORIENTED_EDGE('',*,*,#391,.T.);
#413 = ORIENTED_EDGE('',*,*,#414,.F.);
#414 = EDGE_CURVE('',#151,#149,#415,.T.);
#415 = SURFACE_CURVE('',#416,(#491,#569),.PCURVE_S1.);
#416 = B_SPLINE_CURVE_WITH_KNOTS('',7,(#417,#418,#419,#420,#421,#422,
    #423,#424,#425,#426,#427,#428,#429,#430,#431,#432,#433,#434,#435,
    #436,#437,#438,#439,#440,#441,#442,#443,#444,#445,#446,#447,#448,
    #449,#450,#451,#452,#453,#454,#455,#456,#457,#458,#459,#460,#461,
    #462,#463,#464,#465,#466,#467,#468,#469,#470,#471,#472,#473,#474,
    #475,#476,#477,#478,#479,#480,#481,#482,#483,#484,#485,#486,#487,
    #488,#489,#490),.UNSPECIFIED.,.F.,.F.,(8,6,6,6,6,6,6,6,6,6,6,6,8),(
    0.,9.907411484429E-02,0.150945884029,0.287443638551,0.415408243948,
    0.44561986999,0.499981003157,0.554510871256,0.584666313849,
    0.712308541265,0.849923527269,0.899864763696,1.),.UNSPECIFIED.);
#417 = CARTESIAN_POINT('',(43.,0.,25.));
#418 = CARTESIAN_POINT('',(43.,-0.292711638285,25.));
#419 = CARTESIAN_POINT('',(43.019991819137,-0.582586334917,
    25.016660098631));
#420 = CARTESIAN_POINT('',(43.059279197446,-0.866694507692,
    25.049398715768));
#421 = CARTESIAN_POINT('',(43.11647405383,-1.142155188908,
    25.096934016744));
#422 = CARTESIAN_POINT('',(43.189506288645,-1.406251403803,
    25.157305741744));
#423 = CARTESIAN_POINT('',(43.275595853511,-1.656478675136,
    25.227921109515));
#424 = CARTESIAN_POINT('',(43.42123534243,-2.013066055358,
    25.346307749407));
#425 = CARTESIAN_POINT('',(43.474184640791,-2.131896473082,
    25.389174834695));
#426 = CARTESIAN_POINT('',(43.529777909893,-2.247074542365,
    25.433975385214));
#427 = CARTESIAN_POINT('',(43.587781818666,-2.358665574368,
    25.480477608868));
#428 = CARTESIAN_POINT('',(43.647986813359,-2.46674333134,25.52846844886
    ));
#429 = CARTESIAN_POINT('',(43.71020715236,-2.571389801845,
    25.577753445036));
#430 = CARTESIAN_POINT('',(43.942887649738,-2.939274061463,
    25.760789758334));
#431 = CARTESIAN_POINT('',(44.12463639336,-3.18320214735,25.90140760249)
  );
#432 = CARTESIAN_POINT('',(44.316731311823,-3.406062809241,
    26.046905386264));
#433 = CARTESIAN_POINT('',(44.517379203866,-3.609550527624,
    26.194921472189));
#434 = CARTESIAN_POINT('',(44.725656763985,-3.795292288807,
    26.34364009917));
#435 = CARTESIAN_POINT('',(44.9413731191,-3.964657975943,26.491530260796
    ));
#436 = CARTESIAN_POINT('',(45.374669003173,-4.262912194924,
    26.773066816897));
#437 = CARTESIAN_POINT('',(45.59078425203,-4.393321719064,
    26.906697567332));
#438 = CARTESIAN_POINT('',(45.813595445924,-4.510654507097,
    27.036244357624));
#439 = CARTESIAN_POINT('',(46.043413871008,-4.615145342629,
    27.159808254442));
#440 = CARTESIAN_POINT('',(46.280454320279,-4.706590857401,
    27.274807489951));
#441 = CARTESIAN_POINT('',(46.524920557134,-4.784546211541,
    27.377875056781));
#442 = CARTESIAN_POINT('',(46.836873963855,-4.863220513801,
    27.485780768241));
#443 = CARTESIAN_POINT('',(46.896882280952,-4.877445902987,
    27.50550631903));
#444 = CARTESIAN_POINT('',(46.957296905372,-4.890853605532,
    27.524289122482));
#445 = CARTESIAN_POINT('',(47.018101562318,-4.903428908039,
    27.542072712703));
#446 = CARTESIAN_POINT('',(47.079282674635,-4.915158220683,
    27.558802677602));
#447 = CARTESIAN_POINT('',(47.140829358784,-4.926028613083,
    27.574426848052));
#448 = CARTESIAN_POINT('',(47.314120174881,-4.954018526094,
    27.614929557843));
#449 = CARTESIAN_POINT('',(47.426779623031,-4.969206272967,
    27.63724943751));
#450 = CARTESIAN_POINT('',(47.540408412261,-4.981463892183,
    27.655490721592));
#451 = CARTESIAN_POINT('',(47.654753111978,-4.990711786788,
    27.669372673229));
#452 = CARTESIAN_POINT('',(47.769596108555,-4.996900271953,
    27.678702206428));
#453 = CARTESIAN_POINT('',(47.884741358467,-5.,27.683375209645));
#454 = CARTESIAN_POINT('',(48.115616400061,-5.,27.683375209645));
#455 = CARTESIAN_POINT('',(48.231117734896,-4.996880999239,
    27.678673152014));
#456 = CARTESIAN_POINT('',(48.346313868123,-4.990654165039,
    27.669285804516));
#457 = CARTESIAN_POINT('',(48.46100736487,-4.981349191623,
    27.655318549417));
#458 = CARTESIAN_POINT('',(48.574978909744,-4.96901629872,27.63696673828
    ));
#459 = CARTESIAN_POINT('',(48.68797286956,-4.953735971679,
    27.614514341921));
#460 = CARTESIAN_POINT('',(48.861459575149,-4.925627262514,
    27.573849692328));
#461 = CARTESIAN_POINT('',(48.922879566089,-4.914750081599,
    27.55821972255));
#462 = CARTESIAN_POINT('',(48.983934878288,-4.903017567235,
    27.541489495096));
#463 = CARTESIAN_POINT('',(49.044614753996,-4.890442576613,
    27.52371091293));
#464 = CARTESIAN_POINT('',(49.10490576906,-4.877038615902,
    27.504938085991));
#465 = CARTESIAN_POINT('',(49.164791828935,-4.86282029893,
    27.485227144104));
#466 = CARTESIAN_POINT('',(49.475946871863,-4.784241859616,
    27.377477881923));
#467 = CARTESIAN_POINT('',(49.719776743236,-4.706447848681,
    27.274644231534));
#468 = CARTESIAN_POINT('',(49.956217599633,-4.615232099361,
    27.159944772104));
#469 = CARTESIAN_POINT('',(50.185472293652,-4.511036165746,
    27.036719885034));
#470 = CARTESIAN_POINT('',(50.407754509483,-4.394061885326,
    26.907533022719));
#471 = CARTESIAN_POINT('',(50.623373233928,-4.264077511415,
    26.774271346511));
#472 = CARTESIAN_POINT('',(51.058103160543,-3.96521282074,
    26.491942558517));
#473 = CARTESIAN_POINT('',(51.275579039131,-3.794494098142,
    26.342838668855));
#474 = CARTESIAN_POINT('',(51.485498597089,-3.607135209759,
    26.192895651584));
#475 = CARTESIAN_POINT('',(51.687667755531,-3.401728509093,
    26.04367708657));
#476 = CARTESIAN_POINT('',(51.881134163955,-3.176601359493,
    25.897044660752));
#477 = CARTESIAN_POINT('',(52.064043971476,-2.93001424958,
    25.755428354804));
#478 = CARTESIAN_POINT('',(52.295001462188,-2.562483506589,
    25.573620067388));
#479 = CARTESIAN_POINT('',(52.354768293398,-2.461516026671,
    25.526259986202));
#480 = CARTESIAN_POINT('',(52.412658364356,-2.357364658218,
    25.480108575939));
#481 = CARTESIAN_POINT('',(52.468505391815,-2.249956203031,
    25.43533977318));
#482 = CARTESIAN_POINT('',(52.522122590835,-2.139224524906,
    25.392143529111));
#483 = CARTESIAN_POINT('',(52.573302705366,-2.025110734042,
    25.350725925536));
#484 = CARTESIAN_POINT('',(52.719094252376,-1.671873713467,
    25.23227652543));
#485 = CARTESIAN_POINT('',(52.80675350434,-1.419723348218,
    25.160397214807));
#486 = CARTESIAN_POINT('',(52.881166150816,-1.15342373199,
    25.098894988423));
#487 = CARTESIAN_POINT('',(52.939485151043,-0.875489971446,
    25.05042836652));
#488 = CARTESIAN_POINT('',(52.979578422442,-0.588659246985,
    25.017018255106));
#489 = CARTESIAN_POINT('',(53.,-0.295841159426,25.));
#490 = CARTESIAN_POINT('',(53.,-1.7763568394E-15,25.));
#491 = PCURVE('',#129,#492);
#492 = DEFINITIONAL_REPRESENTATION('',(#493),#568);
#493 = B_SPLINE_CURVE_WITH_KNOTS('',7,(#494,#495,#496,#497,#498,#499,
    #500,#501,#502,#503,#504,#505,#506,#507,#508,#509,#510,#511,#512,
    #513,#514,#515,#516,#517,#518,#519,#520,#521,#522,#523,#524,#525,
    #526,#527,#528,#529,#530,#531,#532,#533,#534,#535,#536,#537,#538,
    #539,#540,#541,#542,#543,#544,#545,#546,#547,#548,#549,#550,#551,
    #552,#553,#554,#555,#556,#557,#558,#559,#560,#561,#562,#563,#564,
    #565,#566,#567),.UNSPECIFIED.,.F.,.F.,(8,6,6,6,6,6,6,6,6,6,6,6,8),(
    0.,9.907411484429E-02,0.150945884029,0.287443638551,0.415408243948,
    0.44561986999,0.499981003157,0.554510871256,0.584666313849,
    0.712308541265,0.849923527269,0.899864763696,1.),.UNSPECIFIED.);
#494 = CARTESIAN_POINT('',(3.14159265359,23.));
#495 = CARTESIAN_POINT('',(3.200134981247,23.));
#496 = CARTESIAN_POINT('',(3.258109920048,23.016660098631));
#497 = CARTESIAN_POINT('',(3.31525927476,23.049398715768));
#498 = CARTESIAN_POINT('',(3.371305888704,23.096934016744));
#499 = CARTESIAN_POINT('',(3.425937787766,23.157305741744));
#500 = CARTESIAN_POINT('',(3.478778205415,23.227921109515));
#501 = CARTESIAN_POINT('',(3.55581466963,23.346307749407));
#502 = CARTESIAN_POINT('',(3.581820512875,23.389174834695));
#503 = CARTESIAN_POINT('',(3.607380327964,23.433975385214));
#504 = CARTESIAN_POINT('',(3.632514107961,23.480477608868));
#505 = CARTESIAN_POINT('',(3.657241263318,23.52846844886));
#506 = CARTESIAN_POINT('',(3.681581355662,23.577753445036));
#507 = CARTESIAN_POINT('',(3.76863973661,23.760789758334));
#508 = CARTESIAN_POINT('',(3.829300959115,23.901407602489));
#509 = CARTESIAN_POINT('',(3.887917309252,24.046905386264));
#510 = CARTESIAN_POINT('',(3.944851927339,24.194921472189));
#511 = CARTESIAN_POINT('',(4.000488941369,24.34364009917));
#512 = CARTESIAN_POINT('',(4.055232872608,24.491530260796));
#513 = CARTESIAN_POINT('',(4.160437606778,24.773066816897));
#514 = CARTESIAN_POINT('',(4.210829630578,24.906697567332));
#515 = CARTESIAN_POINT('',(4.261057450508,25.036244357624));
#516 = CARTESIAN_POINT('',(4.311394413574,25.159808254442));
#517 = CARTESIAN_POINT('',(4.362065859478,25.274807489951));
#518 = CARTESIAN_POINT('',(4.413287333887,25.377875056781));
#519 = CARTESIAN_POINT('',(4.477631587337,25.485780768241));
#520 = CARTESIAN_POINT('',(4.489964604809,25.50550631903));
#521 = CARTESIAN_POINT('',(4.502339459233,25.524289122482));
#522 = CARTESIAN_POINT('',(4.514755398517,25.542072712703));
#523 = CARTESIAN_POINT('',(4.527212339926,25.558802677602));
#524 = CARTESIAN_POINT('',(4.539710849523,25.574426848052));
#525 = CARTESIAN_POINT('',(4.574818194723,25.614929557843));
#526 = CARTESIAN_POINT('',(4.597546143051,25.63724943751));
#527 = CARTESIAN_POINT('',(4.620390821056,25.655490721592));
#528 = CARTESIAN_POINT('',(4.64331958609,25.669372673229));
#529 = CARTESIAN_POINT('',(4.666308205856,25.678702206428));
#530 = CARTESIAN_POINT('',(4.689337252078,25.683375209645));
#531 = CARTESIAN_POINT('',(4.735512260397,25.683375209645));
#532 = CARTESIAN_POINT('',(4.758612523529,25.678673152014));
#533 = CARTESIAN_POINT('',(4.781671957772,25.669285804516));
#534 = CARTESIAN_POINT('',(4.80467103875,25.655318549417));
#535 = CARTESIAN_POINT('',(4.827585369993,25.63696673828));
#536 = CARTESIAN_POINT('',(4.850382027186,25.614514341921));
#537 = CARTESIAN_POINT('',(4.885531841721,25.573849692328));
#538 = CARTESIAN_POINT('',(4.898005644325,25.55821972255));
#539 = CARTESIAN_POINT('',(4.910438009995,25.541489495096));
#540 = CARTESIAN_POINT('',(4.922829512419,25.52371091293));
#541 = CARTESIAN_POINT('',(4.935180082906,25.504938085991));
#542 = CARTESIAN_POINT('',(4.947488990116,25.485227144104));
#543 = CARTESIAN_POINT('',(5.011673733432,25.377477881923));
#544 = CARTESIAN_POINT('',(5.062764912402,25.274644231534));
#545 = CARTESIAN_POINT('',(5.113308999126,25.159944772104));
#546 = CARTESIAN_POINT('',(5.163520068703,25.036719885034));
#547 = CARTESIAN_POINT('',(5.213621879172,24.907533022719));
#548 = CARTESIAN_POINT('',(5.263885669378,24.774271346511));
#549 = CARTESIAN_POINT('',(5.369395898726,24.491942558517));
#550 = CARTESIAN_POINT('',(5.424581087498,24.342838668855));
#551 = CARTESIAN_POINT('',(5.480674224489,24.192895651584));
#552 = CARTESIAN_POINT('',(5.538090235957,24.04367708657));
#553 = CARTESIAN_POINT('',(5.597222933308,23.897044660752));
#554 = CARTESIAN_POINT('',(5.658444175775,23.755428354804));
#555 = CARTESIAN_POINT('',(5.745258969343,23.573620067388));
#556 = CARTESIAN_POINT('',(5.768716829338,23.526259986202));
#557 = CARTESIAN_POINT('',(5.7925343352,23.480108575939));
#558 = CARTESIAN_POINT('',(5.816729012214,23.43533977318));
#559 = CARTESIAN_POINT('',(5.841318261636,23.392143529111));
#560 = CARTESIAN_POINT('',(5.866319969066,23.350725925536));
#561 = CARTESIAN_POINT('',(5.942748123011,23.23227652543));
#562 = CARTESIAN_POINT('',(5.996052493744,23.160397214807));
#563 = CARTESIAN_POINT('',(6.051178401442,23.098894988423));
#564 = CARTESIAN_POINT('',(6.107748967168,23.05042836652));
#565 = CARTESIAN_POINT('',(6.165453459079,23.017018255106));
#566 = CARTESIAN_POINT('',(6.224017075294,23.));
#567 = CARTESIAN_POINT('',(6.28318530718,23.));
#568 = ( GEOMETRIC_REPRESENTATION_CONTEXT(2) 
PARAMETRIC_REPRESENTATION_CONTEXT() REPRESENTATION_CONTEXT('2D SPACE',''
  ) );
#569 = PCURVE('',#308,#570);
#570 = DEFINITIONAL_REPRESENTATION('',(#571),#646);
#571 = B_SPLINE_CURVE_WITH_KNOTS('',7,(#572,#573,#574,#575,#576,#577,
    #578,#579,#580,#581,#582,#583,#584,#585,#586,#587,#588,#589,#590,
    #591,#592,#593,#594,#595,#596,#597,#598,#599,#600,#601,#602,#603,
    #604,#605,#606,#607,#608,#609,#610,#611,#612,#613,#614,#615,#616,
    #617,#618,#619,#620,#621,#622,#623,#624,#625,#626,#627,#628,#629,
    #630,#631,#632,#633,#634,#635,#636,#637,#638,#639,#640,#641,#642,
    #643,#644,#645),.UNSPECIFIED.,.F.,.F.,(8,6,6,6,6,6,6,6,6,6,6,6,8),(
    0.,9.907411484429E-02,0.150945884029,0.287443638551,0.415408243948,
    0.44561986999,0.499981003157,0.554510871256,0.584666313849,
    0.712308541265,0.849923527269,0.899864763696,1.),.UNSPECIFIED.);
#572 = CARTESIAN_POINT('',(6.28318530718,97.));
#573 = CARTESIAN_POINT('',(6.234400034132,97.));
#574 = CARTESIAN_POINT('',(6.186087524779,97.019991819137));
#575 = CARTESIAN_POINT('',(6.138546721179,97.059279197446));
#576 = CARTESIAN_POINT('',(6.092083951466,97.11647405383));
#577 = CARTESIAN_POINT('',(6.047026400639,97.189506288645));
#578 = CARTESIAN_POINT('',(6.00373777609,97.275595853511));
#579 = CARTESIAN_POINT('',(5.941116791802,97.42123534243));
#580 = CARTESIAN_POINT('',(5.920069387109,97.474184640791));
#581 = CARTESIAN_POINT('',(5.899481906134,97.529777909893));
#582 = CARTESIAN_POINT('',(5.879343095299,97.587781818666));
#583 = CARTESIAN_POINT('',(5.859642083879,97.647986813359));
#584 = CARTESIAN_POINT('',(5.840367972798,97.71020715236));
#585 = CARTESIAN_POINT('',(5.771884170889,97.942887649738));
#586 = CARTESIAN_POINT('',(5.725046048813,98.12463639336));
#587 = CARTESIAN_POINT('',(5.680789716512,98.316731311823));
#588 = CARTESIAN_POINT('',(5.638938679986,98.517379203866));
#589 = CARTESIAN_POINT('',(5.599340989182,98.725656763985));
#590 = CARTESIAN_POINT('',(5.561894623958,98.9413731191));
#591 = CARTESIAN_POINT('',(5.493537227471,99.374669003173));
#592 = CARTESIAN_POINT('',(5.462443656124,99.59078425203));
#593 = CARTESIAN_POINT('',(5.433343064752,99.813595445924));
#594 = CARTESIAN_POINT('',(5.406397156822,100.043413871));
#595 = CARTESIAN_POINT('',(5.381921425209,100.28045432027));
#596 = CARTESIAN_POINT('',(5.360386692552,100.52492055713));
#597 = CARTESIAN_POINT('',(5.338129803231,100.83687396385));
#598 = CARTESIAN_POINT('',(5.334076536466,100.89688228095));
#599 = CARTESIAN_POINT('',(5.330230393579,100.95729690537));
#600 = CARTESIAN_POINT('',(5.326600352066,101.01810156231));
#601 = CARTESIAN_POINT('',(5.323195048117,101.07928267463));
#602 = CARTESIAN_POINT('',(5.320022787407,101.14082935878));
#603 = CARTESIAN_POINT('',(5.311817259577,101.31412017488));
#604 = CARTESIAN_POINT('',(5.307317857816,101.42677962303));
#605 = CARTESIAN_POINT('',(5.303655070016,101.54040841226));
#606 = CARTESIAN_POINT('',(5.300875032949,101.65475311197));
#607 = CARTESIAN_POINT('',(5.299009123747,101.76959610855));
#608 = CARTESIAN_POINT('',(5.298074523842,101.88474135846));
#609 = CARTESIAN_POINT('',(5.298074523842,102.11561640006));
#610 = CARTESIAN_POINT('',(5.299014934613,102.23111773489));
#611 = CARTESIAN_POINT('',(5.300892406735,102.34631386812));
#612 = CARTESIAN_POINT('',(5.303689549944,102.46100736487));
#613 = CARTESIAN_POINT('',(5.307374623587,102.57497890974));
#614 = CARTESIAN_POINT('',(5.311900963426,102.68797286956));
#615 = CARTESIAN_POINT('',(5.320139951459,102.86145957514));
#616 = CARTESIAN_POINT('',(5.323313651727,102.92287956608));
#617 = CARTESIAN_POINT('',(5.326719297822,102.98393487828));
#618 = CARTESIAN_POINT('',(5.330348627871,103.04461475399));
#619 = CARTESIAN_POINT('',(5.334193055239,103.10490576906));
#620 = CARTESIAN_POINT('',(5.33824365788,103.16479182893));
#621 = CARTESIAN_POINT('',(5.360470065238,103.47594687186));
#622 = CARTESIAN_POINT('',(5.381957495385,103.71977674323));
#623 = CARTESIAN_POINT('',(5.406370364654,103.95621759963));
#624 = CARTESIAN_POINT('',(5.433241599825,104.18547229365));
#625 = CARTESIAN_POINT('',(5.462257878829,104.40775450948));
#626 = CARTESIAN_POINT('',(5.493258185237,104.62337323392));
#627 = CARTESIAN_POINT('',(5.561780210865,105.05810316054));
#628 = CARTESIAN_POINT('',(5.599528858497,105.27557903913));
#629 = CARTESIAN_POINT('',(5.639463018981,105.48549859708));
#630 = CARTESIAN_POINT('',(5.681688306215,105.68766775553));
#631 = CARTESIAN_POINT('',(5.726361398847,105.88113416395));
#632 = CARTESIAN_POINT('',(5.773663808806,106.06404397147));
#633 = CARTESIAN_POINT('',(5.842003869535,106.29500146218));
#634 = CARTESIAN_POINT('',(5.860587038515,106.35476829339));
#635 = CARTESIAN_POINT('',(5.879566378644,106.41265836435));
#636 = CARTESIAN_POINT('',(5.898951671994,106.46850539181));
#637 = CARTESIAN_POINT('',(5.918752679861,106.52212259083));
#638 = CARTESIAN_POINT('',(5.938979483665,106.57330270536));
#639 = CARTESIAN_POINT('',(6.001074091834,106.71909425237));
#640 = CARTESIAN_POINT('',(6.044727480294,106.80675350434));
#641 = CARTESIAN_POINT('',(6.090182732652,106.88116615081));
#642 = CARTESIAN_POINT('',(6.137074666679,106.93948515104));
#643 = CARTESIAN_POINT('',(6.185075370661,106.97957842244));
#644 = CARTESIAN_POINT('',(6.233878447275,107.));
#645 = CARTESIAN_POINT('',(6.28318530718,107.));
#646 = ( GEOMETRIC_REPRESENTATION_CONTEXT(2) 
PARAMETRIC_REPRESENTATION_CONTEXT() REPRESENTATION_CONTEXT('2D SPACE',''
  ) );
#647 = ADVANCED_FACE('',(#648),#308,.T.);
#648 = FACE_BOUND('',#649,.T.);
#649 = EDGE_LOOP('',(#650,#673,#700,#701,#702,#725,#966,#989,#1016,#1017
    ,#1251,#1252));
#650 = ORIENTED_EDGE('',*,*,#651,.T.);
#651 = EDGE_CURVE('',#149,#652,#654,.T.);
#652 = VERTEX_POINT('',#653);
#653 = CARTESIAN_POINT('',(54.,-1.469576158977E-15,25.));
#654 = SEAM_CURVE('',#655,(#659,#666),.PCURVE_S1.);
#655 = LINE('',#656,#657);
#656 = CARTESIAN_POINT('',(-54.,-1.469576158977E-15,25.));
#657 = VECTOR('',#658,1.);
#658 = DIRECTION('',(1.,0.,2.22044604925E-16));
#659 = PCURVE('',#308,#660);
#660 = DEFINITIONAL_REPRESENTATION('',(#661),#665);
#661 = LINE('',#662,#663);
#662 = CARTESIAN_POINT('',(6.28318530718,-0.));
#663 = VECTOR('',#664,1.);
#664 = DIRECTION('',(0.,1.));
#665 = ( GEOMETRIC_REPRESENTATION_CONTEXT(2) 
PARAMETRIC_REPRESENTATION_CONTEXT() REPRESENTATION_CONTEXT('2D SPACE',''
  ) );
#666 = PCURVE('',#308,#667);
#667 = DEFINITIONAL_REPRESENTATION('',(#668),#672);
#668 = LINE('',#669,#670);
#669 = CARTESIAN_POINT('',(0.,-0.));
#670 = VECTOR('',#671,1.);
#671 = DIRECTION('',(0.,1.));
#672 = ( GEOMETRIC_REPRESENTATION_CONTEXT(2) 
PARAMETRIC_REPRESENTATION_CONTEXT() REPRESENTATION_CONTEXT('2D SPACE',''
  ) );
#673 = ORIENTED_EDGE('',*,*,#674,.F.);
#674 = EDGE_CURVE('',#652,#652,#675,.T.);
#675 = SURFACE_CURVE('',#676,(#681,#688),.PCURVE_S1.);
#676 = CIRCLE('',#677,6.);
#677 = AXIS2_PLACEMENT_3D('',#678,#679,#680);
#678 = CARTESIAN_POINT('',(54.,0.,31.));
#679 = DIRECTION('',(1.,-0.,2.22044604925E-16));
#680 = DIRECTION('',(2.22044604925E-16,0.,-1.));
#681 = PCURVE('',#308,#682);
#682 = DEFINITIONAL_REPRESENTATION('',(#683),#687);
#683 = LINE('',#684,#685);
#684 = CARTESIAN_POINT('',(0.,108.));
#685 = VECTOR('',#686,1.);
#686 = DIRECTION('',(1.,0.));
#687 = ( GEOMETRIC_REPRESENTATION_CONTEXT(2) 
PARAMETRIC_REPRESENTATION_CONTEXT() REPRESENTATION_CONTEXT('2D SPACE',''
  ) );
#688 = PCURVE('',#689,#694);
#689 = PLANE('',#690);
#690 = AXIS2_PLACEMENT_3D('',#691,#692,#693);
#691 = CARTESIAN_POINT('',(54.,0.,31.));
#692 = DIRECTION('',(1.,0.,2.22044604925E-16));
#693 = DIRECTION('',(2.22044604925E-16,0.,-1.));
#694 = DEFINITIONAL_REPRESENTATION('',(#695),#699);
#695 = CIRCLE('',#696,6.);
#696 = AXIS2_PLACEMENT_2D('',#697,#698);
#697 = CARTESIAN_POINT('',(0.,0.));
#698 = DIRECTION('',(1.,0.));
#699 = ( GEOMETRIC_REPRESENTATION_CONTEXT(2) 
PARAMETRIC_REPRESENTATION_CONTEXT() REPRESENTATION_CONTEXT('2D SPACE',''
  ) );
#700 = ORIENTED_EDGE('',*,*,#651,.F.);
#701 = ORIENTED_EDGE('',*,*,#148,.T.);
#702 = ORIENTED_EDGE('',*,*,#703,.F.);
#703 = EDGE_CURVE('',#704,#151,#706,.T.);
#704 = VERTEX_POINT('',#705);
#705 = CARTESIAN_POINT('',(-43.,-1.347111479062E-15,25.));
#706 = SEAM_CURVE('',#707,(#711,#718),.PCURVE_S1.);
#707 = LINE('',#708,#709);
#708 = CARTESIAN_POINT('',(-54.,-1.469576158977E-15,25.));
#709 = VECTOR('',#710,1.);
#710 = DIRECTION('',(1.,0.,2.22044604925E-16));
#711 = PCURVE('',#308,#712);
#712 = DEFINITIONAL_REPRESENTATION('',(#713),#717);
#713 = LINE('',#714,#715);
#714 = CARTESIAN_POINT('',(6.28318530718,-0.));
#715 = VECTOR('',#716,1.);
#716 = DIRECTION('',(0.,1.));
#717 = ( GEOMETRIC_REPRESENTATION_CONTEXT(2) 
PARAMETRIC_REPRESENTATION_CONTEXT() REPRESENTATION_CONTEXT('2D SPACE',''
  ) );
#718 = PCURVE('',#308,#719);
#719 = DEFINITIONAL_REPRESENTATION('',(#720),#724);
#720 = LINE('',#721,#722);
#721 = CARTESIAN_POINT('',(0.,-0.));
#722 = VECTOR('',#723,1.);
#723 = DIRECTION('',(0.,1.));
#724 = ( GEOMETRIC_REPRESENTATION_CONTEXT(2) 
PARAMETRIC_REPRESENTATION_CONTEXT() REPRESENTATION_CONTEXT('2D SPACE',''
  ) );
#725 = ORIENTED_EDGE('',*,*,#726,.T.);
#726 = EDGE_CURVE('',#704,#727,#729,.T.);
#727 = VERTEX_POINT('',#728);
#728 = CARTESIAN_POINT('',(-53.,-1.469576158977E-15,25.));
#729 = SURFACE_CURVE('',#730,(#805,#883),.PCURVE_S1.);
#730 = B_SPLINE_CURVE_WITH_KNOTS('',7,(#731,#732,#733,#734,#735,#736,
    #737,#738,#739,#740,#741,#742,#743,#744,#745,#746,#747,#748,#749,
    #750,#751,#752,#753,#754,#755,#756,#757,#758,#759,#760,#761,#762,
    #763,#764,#765,#766,#767,#768,#769,#770,#771,#772,#773,#774,#775,
    #776,#777,#778,#779,#780,#781,#782,#783,#784,#785,#786,#787,#788,
    #789,#790,#791,#792,#793,#794,#795,#796,#797,#798,#799,#800,#801,
    #802,#803,#804),.UNSPECIFIED.,.F.,.F.,(8,6,6,6,6,6,6,6,6,6,6,6,8),(
    0.,9.907411455802E-02,0.15094588375,0.287443638316,0.415408243753,
    0.445619869805,0.49998100299,0.554510871106,0.584666313709,
    0.712308541167,0.849923527216,0.89986476366,1.),.UNSPECIFIED.);
#731 = CARTESIAN_POINT('',(-43.,-6.123233995737E-16,25.));
#732 = CARTESIAN_POINT('',(-43.,0.292711639299,25.));
#733 = CARTESIAN_POINT('',(-43.0199918189,0.58258633268,25.016660098441)
  );
#734 = CARTESIAN_POINT('',(-43.05927919777,0.866694508848,
    25.049398716033));
#735 = CARTESIAN_POINT('',(-43.11647405395,1.142155190316,
    25.096934016845));
#736 = CARTESIAN_POINT('',(-43.18950628816,1.406251401872,
    25.157305741354));
#737 = CARTESIAN_POINT('',(-43.27559585378,1.656478675805,
    25.227921109737));
#738 = CARTESIAN_POINT('',(-43.42123534244,2.01306605538,25.346307749414
    ));
#739 = CARTESIAN_POINT('',(-43.47418464079,2.131896473084,
    25.389174834697));
#740 = CARTESIAN_POINT('',(-43.52977790988,2.247074542349,
    25.433975385208));
#741 = CARTESIAN_POINT('',(-43.58778181865,2.358665574353,
    25.480477608861));
#742 = CARTESIAN_POINT('',(-43.64798681335,2.466743331342,25.52846844886
    ));
#743 = CARTESIAN_POINT('',(-43.71020715237,2.571389801862,
    25.577753445044));
#744 = CARTESIAN_POINT('',(-43.94288764973,2.939274061463,
    25.760789758334));
#745 = CARTESIAN_POINT('',(-44.12463639335,3.183202147349,
    25.901407602489));
#746 = CARTESIAN_POINT('',(-44.31673131182,3.406062809244,
    26.046905386266));
#747 = CARTESIAN_POINT('',(-44.51737920386,3.609550527621,
    26.194921472188));
#748 = CARTESIAN_POINT('',(-44.72565676398,3.795292288808,
    26.343640099171));
#749 = CARTESIAN_POINT('',(-44.9413731191,3.964657975943,26.491530260796
    ));
#750 = CARTESIAN_POINT('',(-45.37466900317,4.262912194924,
    26.773066816897));
#751 = CARTESIAN_POINT('',(-45.59078425202,4.393321719063,
    26.906697567332));
#752 = CARTESIAN_POINT('',(-45.81359544593,4.5106545071,27.036244357627)
  );
#753 = CARTESIAN_POINT('',(-46.043413871,4.615145342626,27.159808254439)
  );
#754 = CARTESIAN_POINT('',(-46.28045432028,4.706590857402,
    27.274807489951));
#755 = CARTESIAN_POINT('',(-46.52492055713,4.784546211541,
    27.377875056782));
#756 = CARTESIAN_POINT('',(-46.83687396385,4.863220513801,
    27.485780768241));
#757 = CARTESIAN_POINT('',(-46.89688228095,4.877445902987,27.50550631903
    ));
#758 = CARTESIAN_POINT('',(-46.95729690537,4.890853605532,
    27.524289122482));
#759 = CARTESIAN_POINT('',(-47.01810156231,4.903428908039,
    27.542072712703));
#760 = CARTESIAN_POINT('',(-47.07928267463,4.915158220683,
    27.558802677602));
#761 = CARTESIAN_POINT('',(-47.14082935878,4.926028613083,
    27.574426848052));
#762 = CARTESIAN_POINT('',(-47.31412017488,4.954018526094,
    27.614929557843));
#763 = CARTESIAN_POINT('',(-47.42677962303,4.969206272967,27.63724943751
    ));
#764 = CARTESIAN_POINT('',(-47.54040841226,4.981463892183,
    27.655490721592));
#765 = CARTESIAN_POINT('',(-47.65475311197,4.990711786788,
    27.669372673229));
#766 = CARTESIAN_POINT('',(-47.76959610855,4.996900271953,
    27.678702206428));
#767 = CARTESIAN_POINT('',(-47.88474135846,5.,27.683375209645));
#768 = CARTESIAN_POINT('',(-48.11561640006,5.,27.683375209645));
#769 = CARTESIAN_POINT('',(-48.23111773489,4.996880999239,
    27.678673152014));
#770 = CARTESIAN_POINT('',(-48.34631386812,4.990654165039,
    27.669285804516));
#771 = CARTESIAN_POINT('',(-48.46100736487,4.981349191623,
    27.655318549417));
#772 = CARTESIAN_POINT('',(-48.57497890974,4.96901629872,27.63696673828)
  );
#773 = CARTESIAN_POINT('',(-48.68797286955,4.953735971679,
    27.614514341921));
#774 = CARTESIAN_POINT('',(-48.86145957514,4.925627262514,
    27.573849692328));
#775 = CARTESIAN_POINT('',(-48.92287956608,4.914750081599,27.55821972255
    ));
#776 = CARTESIAN_POINT('',(-48.98393487828,4.903017567235,
    27.541489495096));
#777 = CARTESIAN_POINT('',(-49.04461475399,4.890442576613,27.52371091293
    ));
#778 = CARTESIAN_POINT('',(-49.10490576906,4.877038615902,
    27.504938085991));
#779 = CARTESIAN_POINT('',(-49.16479182893,4.86282029893,27.485227144104
    ));
#780 = CARTESIAN_POINT('',(-49.47594687186,4.784241859615,
    27.377477881923));
#781 = CARTESIAN_POINT('',(-49.71977674323,4.70644784868,27.274644231533
    ));
#782 = CARTESIAN_POINT('',(-49.95621759962,4.615232099362,
    27.159944772105));
#783 = CARTESIAN_POINT('',(-50.18547229365,4.511036165746,
    27.036719885034));
#784 = CARTESIAN_POINT('',(-50.40775450948,4.394061885326,26.90753302272
    ));
#785 = CARTESIAN_POINT('',(-50.62337323393,4.264077511414,26.77427134651
    ));
#786 = CARTESIAN_POINT('',(-51.05810316054,3.96521282074,26.491942558517
    ));
#787 = CARTESIAN_POINT('',(-51.27557903913,3.794494098142,
    26.342838668855));
#788 = CARTESIAN_POINT('',(-51.48549859708,3.60713520976,26.192895651584
    ));
#789 = CARTESIAN_POINT('',(-51.68766775553,3.401728509094,
    26.043677086571));
#790 = CARTESIAN_POINT('',(-51.88113416395,3.176601359493,
    25.897044660751));
#791 = CARTESIAN_POINT('',(-52.06404397147,2.930014249579,
    25.755428354804));
#792 = CARTESIAN_POINT('',(-52.29500146218,2.562483506589,
    25.573620067388));
#793 = CARTESIAN_POINT('',(-52.35476829339,2.461516026671,
    25.526259986202));
#794 = CARTESIAN_POINT('',(-52.41265836435,2.357364658218,
    25.480108575939));
#795 = CARTESIAN_POINT('',(-52.46850539181,2.249956203031,25.43533977318
    ));
#796 = CARTESIAN_POINT('',(-52.52212259083,2.139224524906,
    25.392143529111));
#797 = CARTESIAN_POINT('',(-52.57330270536,2.025110734042,
    25.350725925536));
#798 = CARTESIAN_POINT('',(-52.71909425237,1.67187371346,25.232276525428
    ));
#799 = CARTESIAN_POINT('',(-52.80675350433,1.419723348218,
    25.160397214808));
#800 = CARTESIAN_POINT('',(-52.88116615081,1.153423731997,
    25.098894988425));
#801 = CARTESIAN_POINT('',(-52.93948515104,0.875489971453,25.05042836652
    ));
#802 = CARTESIAN_POINT('',(-52.97957842244,0.588659246983,
    25.017018255105));
#803 = CARTESIAN_POINT('',(-53.,0.295841159417,25.));
#804 = CARTESIAN_POINT('',(-53.,9.184850993605E-16,25.));
#805 = PCURVE('',#308,#806);
#806 = DEFINITIONAL_REPRESENTATION('',(#807),#882);
#807 = B_SPLINE_CURVE_WITH_KNOTS('',7,(#808,#809,#810,#811,#812,#813,
    #814,#815,#816,#817,#818,#819,#820,#821,#822,#823,#824,#825,#826,
    #827,#828,#829,#830,#831,#832,#833,#834,#835,#836,#837,#838,#839,
    #840,#841,#842,#843,#844,#845,#846,#847,#848,#849,#850,#851,#852,
    #853,#854,#855,#856,#857,#858,#859,#860,#861,#862,#863,#864,#865,
    #866,#867,#868,#869,#870,#871,#872,#873,#874,#875,#876,#877,#878,
    #879,#880,#881),.UNSPECIFIED.,.F.,.F.,(8,6,6,6,6,6,6,6,6,6,6,6,8),(
    0.,9.907411455802E-02,0.15094588375,0.287443638316,0.415408243753,
    0.445619869805,0.49998100299,0.554510871106,0.584666313709,
    0.712308541167,0.849923527216,0.89986476366,1.),.UNSPECIFIED.);
#808 = CARTESIAN_POINT('',(0.,11.));
#809 = CARTESIAN_POINT('',(4.878527321655E-02,11.));
#810 = CARTESIAN_POINT('',(9.709778202313E-02,10.980008181095));
#811 = CARTESIAN_POINT('',(0.144638586199,10.94072080223));
#812 = CARTESIAN_POINT('',(0.191101355951,10.883525946047));
#813 = CARTESIAN_POINT('',(0.236158906209,10.810493711833));
#814 = CARTESIAN_POINT('',(0.279447531207,10.724404146216));
#815 = CARTESIAN_POINT('',(0.342068515382,10.57876465756));
#816 = CARTESIAN_POINT('',(0.363115920071,10.525815359206));
#817 = CARTESIAN_POINT('',(0.383703401042,10.470222090114));
#818 = CARTESIAN_POINT('',(0.403842211878,10.412218181342));
#819 = CARTESIAN_POINT('',(0.423543223301,10.352013186642));
#820 = CARTESIAN_POINT('',(0.442817334384,10.28979284763));
#821 = CARTESIAN_POINT('',(0.51130113629,10.057112350262));
#822 = CARTESIAN_POINT('',(0.558139258366,9.875363606641));
#823 = CARTESIAN_POINT('',(0.602395590668,9.683268688175));
#824 = CARTESIAN_POINT('',(0.644246627193,9.482620796137));
#825 = CARTESIAN_POINT('',(0.683844317998,9.274343236013));
#826 = CARTESIAN_POINT('',(0.721290683222,9.0586268809));
#827 = CARTESIAN_POINT('',(0.789648079709,8.625330996827));
#828 = CARTESIAN_POINT('',(0.820741651056,8.409215747971));
#829 = CARTESIAN_POINT('',(0.849842242428,8.18640455407));
#830 = CARTESIAN_POINT('',(0.876788150357,7.956586128999));
#831 = CARTESIAN_POINT('',(0.901263881971,7.719545679721));
#832 = CARTESIAN_POINT('',(0.922798614627,7.475079442864));
#833 = CARTESIAN_POINT('',(0.945055503949,7.163126036145));
#834 = CARTESIAN_POINT('',(0.949108770713,7.103117719048));
#835 = CARTESIAN_POINT('',(0.9529549136,7.042703094629));
#836 = CARTESIAN_POINT('',(0.956584955114,6.981898437682));
#837 = CARTESIAN_POINT('',(0.959990259062,6.920717325365));
#838 = CARTESIAN_POINT('',(0.963162519773,6.859170641216));
#839 = CARTESIAN_POINT('',(0.971368047602,6.685879825119));
#840 = CARTESIAN_POINT('',(0.975867449364,6.573220376969));
#841 = CARTESIAN_POINT('',(0.979530237164,6.459591587739));
#842 = CARTESIAN_POINT('',(0.98231027423,6.345246888022));
#843 = CARTESIAN_POINT('',(0.984176183432,6.230403891445));
#844 = CARTESIAN_POINT('',(0.985110783338,6.115258641533));
#845 = CARTESIAN_POINT('',(0.985110783338,5.884383599939));
#846 = CARTESIAN_POINT('',(0.984170372567,5.768882265103));
#847 = CARTESIAN_POINT('',(0.982292900445,5.653686131876));
#848 = CARTESIAN_POINT('',(0.979495757236,5.53899263513));
#849 = CARTESIAN_POINT('',(0.975810683592,5.425021090256));
#850 = CARTESIAN_POINT('',(0.971284343754,5.312027130441));
#851 = CARTESIAN_POINT('',(0.96304535572,5.138540424851));
#852 = CARTESIAN_POINT('',(0.959871655453,5.077120433911));
#853 = CARTESIAN_POINT('',(0.956466009358,5.016065121712));
#854 = CARTESIAN_POINT('',(0.952836679308,4.955385246004));
#855 = CARTESIAN_POINT('',(0.94899225194,4.89509423094));
#856 = CARTESIAN_POINT('',(0.9449416493,4.835208171065));
#857 = CARTESIAN_POINT('',(0.922715241942,4.524053128137));
#858 = CARTESIAN_POINT('',(0.901227811795,4.280223256762));
#859 = CARTESIAN_POINT('',(0.876814942526,4.043782400371));
#860 = CARTESIAN_POINT('',(0.849943707354,3.814527706346));
#861 = CARTESIAN_POINT('',(0.820927428351,3.592245490518));
#862 = CARTESIAN_POINT('',(0.789927121943,3.37662676607));
#863 = CARTESIAN_POINT('',(0.721405096315,2.941896839456));
#864 = CARTESIAN_POINT('',(0.683656448682,2.724420960869));
#865 = CARTESIAN_POINT('',(0.643722288198,2.514501402911));
#866 = CARTESIAN_POINT('',(0.601497000965,2.31233224447));
#867 = CARTESIAN_POINT('',(0.556823908332,2.118865836045));
#868 = CARTESIAN_POINT('',(0.509521498373,1.935956028524));
#869 = CARTESIAN_POINT('',(0.441181437644,1.704998537812));
#870 = CARTESIAN_POINT('',(0.422598268665,1.645231706602));
#871 = CARTESIAN_POINT('',(0.403618928535,1.587341635644));
#872 = CARTESIAN_POINT('',(0.384233635186,1.531494608185));
#873 = CARTESIAN_POINT('',(0.364432627318,1.477877409165));
#874 = CARTESIAN_POINT('',(0.344205823515,1.426697294634));
#875 = CARTESIAN_POINT('',(0.282111215345,1.280905747621));
#876 = CARTESIAN_POINT('',(0.238457826885,1.193246495661));
#877 = CARTESIAN_POINT('',(0.193002574529,1.118833849187));
#878 = CARTESIAN_POINT('',(0.146110640502,1.060514848958));
#879 = CARTESIAN_POINT('',(9.810993651876E-02,1.020421577557));
#880 = CARTESIAN_POINT('',(4.930685990285E-02,1.));
#881 = CARTESIAN_POINT('',(0.,1.));
#882 = ( GEOMETRIC_REPRESENTATION_CONTEXT(2) 
PARAMETRIC_REPRESENTATION_CONTEXT() REPRESENTATION_CONTEXT('2D SPACE',''
  ) );
#883 = PCURVE('',#884,#889);
#884 = CYLINDRICAL_SURFACE('',#885,5.);
#885 = AXIS2_PLACEMENT_3D('',#886,#887,#888);
#886 = CARTESIAN_POINT('',(-48.,0.,2.));
#887 = DIRECTION('',(0.,0.,1.));
#888 = DIRECTION('',(1.,0.,-0.));
#889 = DEFINITIONAL_REPRESENTATION('',(#890),#965);
#890 = B_SPLINE_CURVE_WITH_KNOTS('',7,(#891,#892,#893,#894,#895,#896,
    #897,#898,#899,#900,#901,#902,#903,#904,#905,#906,#907,#908,#909,
    #910,#911,#912,#913,#914,#915,#916,#917,#918,#919,#920,#921,#922,
    #923,#924,#925,#926,#927,#928,#929,#930,#931,#932,#933,#934,#935,
    #936,#937,#938,#939,#940,#941,#942,#943,#944,#945,#946,#947,#948,
    #949,#950,#951,#952,#953,#954,#955,#956,#957,#958,#959,#960,#961,
    #962,#963,#964),.UNSPECIFIED.,.F.,.F.,(8,6,6,6,6,6,6,6,6,6,6,6,8),(
    0.,9.907411455802E-02,0.15094588375,0.287443638316,0.415408243753,
    0.445619869805,0.49998100299,0.554510871106,0.584666313709,
    0.712308541167,0.849923527216,0.89986476366,1.),.UNSPECIFIED.);
#891 = CARTESIAN_POINT('',(0.,23.));
#892 = CARTESIAN_POINT('',(5.854232785986E-02,23.));
#893 = CARTESIAN_POINT('',(0.116517266003,23.016660098441));
#894 = CARTESIAN_POINT('',(0.173666621412,23.049398716033));
#895 = CARTESIAN_POINT('',(0.229713235399,23.096934016845));
#896 = CARTESIAN_POINT('',(0.284345133772,23.157305741354));
#897 = CARTESIAN_POINT('',(0.33718555197,23.227921109737));
#898 = CARTESIAN_POINT('',(0.414222016045,23.346307749414));
#899 = CARTESIAN_POINT('',(0.440227859286,23.389174834697));
#900 = CARTESIAN_POINT('',(0.465787674371,23.433975385208));
#901 = CARTESIAN_POINT('',(0.490921454368,23.480477608861));
#902 = CARTESIAN_POINT('',(0.515648609729,23.52846844886));
#903 = CARTESIAN_POINT('',(0.539988702076,23.577753445044));
#904 = CARTESIAN_POINT('',(0.627047083021,23.760789758334));
#905 = CARTESIAN_POINT('',(0.687708305524,23.901407602489));
#906 = CARTESIAN_POINT('',(0.746324655663,24.046905386266));
#907 = CARTESIAN_POINT('',(0.803259273748,24.194921472188));
#908 = CARTESIAN_POINT('',(0.85889628778,24.343640099171));
#909 = CARTESIAN_POINT('',(0.913640219018,24.491530260796));
#910 = CARTESIAN_POINT('',(1.018844953188,24.773066816897));
#911 = CARTESIAN_POINT('',(1.069236976988,24.906697567332));
#912 = CARTESIAN_POINT('',(1.119464796919,25.036244357627));
#913 = CARTESIAN_POINT('',(1.169801759983,25.159808254439));
#914 = CARTESIAN_POINT('',(1.220473205889,25.274807489951));
#915 = CARTESIAN_POINT('',(1.271694680297,25.377875056782));
#916 = CARTESIAN_POINT('',(1.336038933747,25.485780768241));
#917 = CARTESIAN_POINT('',(1.348371951219,25.50550631903));
#918 = CARTESIAN_POINT('',(1.360746805643,25.524289122482));
#919 = CARTESIAN_POINT('',(1.373162744927,25.542072712703));
#920 = CARTESIAN_POINT('',(1.385619686336,25.558802677602));
#921 = CARTESIAN_POINT('',(1.398118195934,25.574426848052));
#922 = CARTESIAN_POINT('',(1.433225541133,25.614929557843));
#923 = CARTESIAN_POINT('',(1.455953489461,25.63724943751));
#924 = CARTESIAN_POINT('',(1.478798167466,25.655490721592));
#925 = CARTESIAN_POINT('',(1.5017269325,25.669372673229));
#926 = CARTESIAN_POINT('',(1.524715552266,25.678702206428));
#927 = CARTESIAN_POINT('',(1.547744598488,25.683375209645));
#928 = CARTESIAN_POINT('',(1.593919606807,25.683375209645));
#929 = CARTESIAN_POINT('',(1.61701986994,25.678673152014));
#930 = CARTESIAN_POINT('',(1.640079304182,25.669285804516));
#931 = CARTESIAN_POINT('',(1.66307838516,25.655318549417));
#932 = CARTESIAN_POINT('',(1.685992716404,25.63696673828));
#933 = CARTESIAN_POINT('',(1.708789373596,25.614514341921));
#934 = CARTESIAN_POINT('',(1.743939188131,25.573849692328));
#935 = CARTESIAN_POINT('',(1.756412990735,25.55821972255));
#936 = CARTESIAN_POINT('',(1.768845356405,25.541489495096));
#937 = CARTESIAN_POINT('',(1.781236858829,25.52371091293));
#938 = CARTESIAN_POINT('',(1.793587429316,25.504938085991));
#939 = CARTESIAN_POINT('',(1.805896336526,25.485227144104));
#940 = CARTESIAN_POINT('',(1.870081079843,25.377477881923));
#941 = CARTESIAN_POINT('',(1.921172258813,25.274644231533));
#942 = CARTESIAN_POINT('',(1.971716345536,25.159944772105));
#943 = CARTESIAN_POINT('',(2.021927415114,25.036719885034));
#944 = CARTESIAN_POINT('',(2.072029225582,24.90753302272));
#945 = CARTESIAN_POINT('',(2.122293015789,24.77427134651));
#946 = CARTESIAN_POINT('',(2.227803245137,24.491942558517));
#947 = CARTESIAN_POINT('',(2.282988433907,24.342838668855));
#948 = CARTESIAN_POINT('',(2.339081570899,24.192895651584));
#949 = CARTESIAN_POINT('',(2.396497582366,24.043677086571));
#950 = CARTESIAN_POINT('',(2.455630279719,23.897044660751));
#951 = CARTESIAN_POINT('',(2.516851522185,23.755428354804));
#952 = CARTESIAN_POINT('',(2.603666315754,23.573620067388));
#953 = CARTESIAN_POINT('',(2.627124175748,23.526259986202));
#954 = CARTESIAN_POINT('',(2.65094168161,23.480108575939));
#955 = CARTESIAN_POINT('',(2.675136358624,23.43533977318));
#956 = CARTESIAN_POINT('',(2.699725608047,23.392143529111));
#957 = CARTESIAN_POINT('',(2.724727315477,23.350725925536));
#958 = CARTESIAN_POINT('',(2.801155469423,23.232276525428));
#959 = CARTESIAN_POINT('',(2.854459840154,23.160397214808));
#960 = CARTESIAN_POINT('',(2.90958574785,23.098894988425));
#961 = CARTESIAN_POINT('',(2.966156313577,23.05042836652));
#962 = CARTESIAN_POINT('',(3.02386080549,23.017018255105));
#963 = CARTESIAN_POINT('',(3.082424421706,23.));
#964 = CARTESIAN_POINT('',(3.14159265359,23.));
#965 = ( GEOMETRIC_REPRESENTATION_CONTEXT(2) 
PARAMETRIC_REPRESENTATION_CONTEXT() REPRESENTATION_CONTEXT('2D SPACE',''
  ) );
#966 = ORIENTED_EDGE('',*,*,#967,.F.);
#967 = EDGE_CURVE('',#968,#727,#970,.T.);
#968 = VERTEX_POINT('',#969);
#969 = CARTESIAN_POINT('',(-54.,-1.469576158977E-15,25.));
#970 = SEAM_CURVE('',#971,(#975,#982),.PCURVE_S1.);
#971 = LINE('',#972,#973);
#972 = CARTESIAN_POINT('',(-54.,-1.469576158977E-15,25.));
#973 = VECTOR('',#974,1.);
#974 = DIRECTION('',(1.,0.,2.22044604925E-16));
#975 = PCURVE('',#308,#976);
#976 = DEFINITIONAL_REPRESENTATION('',(#977),#981);
#977 = LINE('',#978,#979);
#978 = CARTESIAN_POINT('',(6.28318530718,-0.));
#979 = VECTOR('',#980,1.);
#980 = DIRECTION('',(0.,1.));
#981 = ( GEOMETRIC_REPRESENTATION_CONTEXT(2) 
PARAMETRIC_REPRESENTATION_CONTEXT() REPRESENTATION_CONTEXT('2D SPACE',''
  ) );
#982 = PCURVE('',#308,#983);
#983 = DEFINITIONAL_REPRESENTATION('',(#984),#988);
#984 = LINE('',#985,#986);
#985 = CARTESIAN_POINT('',(0.,-0.));
#986 = VECTOR('',#987,1.);
#987 = DIRECTION('',(0.,1.));
#988 = ( GEOMETRIC_REPRESENTATION_CONTEXT(2) 
PARAMETRIC_REPRESENTATION_CONTEXT() REPRESENTATION_CONTEXT('2D SPACE',''
  ) );
#989 = ORIENTED_EDGE('',*,*,#990,.T.);
#990 = EDGE_CURVE('',#968,#968,#991,.T.);
#991 = SURFACE_CURVE('',#992,(#997,#1004),.PCURVE_S1.);
#992 = CIRCLE('',#993,6.);
#993 = AXIS2_PLACEMENT_3D('',#994,#995,#996);
#994 = CARTESIAN_POINT('',(-54.,0.,31.));
#995 = DIRECTION('',(1.,-0.,2.22044604925E-16));
#996 = DIRECTION('',(2.22044604925E-16,0.,-1.));
#997 = PCURVE('',#308,#998);
#998 = DEFINITIONAL_REPRESENTATION('',(#999),#1003);
#999 = LINE('',#1000,#1001);
#1000 = CARTESIAN_POINT('',(0.,0.));
#1001 = VECTOR('',#1002,1.);
#1002 = DIRECTION('',(1.,0.));
#1003 = ( GEOMETRIC_REPRESENTATION_CONTEXT(2) 
PARAMETRIC_REPRESENTATION_CONTEXT() REPRESENTATION_CONTEXT('2D SPACE',''
  ) );
#1004 = PCURVE('',#1005,#1010);
#1005 = PLANE('',#1006);
#1006 = AXIS2_PLACEMENT_3D('',#1007,#1008,#1009);
#1007 = CARTESIAN_POINT('',(-54.,0.,31.));
#1008 = DIRECTION('',(1.,0.,2.22044604925E-16));
#1009 = DIRECTION('',(2.22044604925E-16,0.,-1.));
#1010 = DEFINITIONAL_REPRESENTATION('',(#1011),#1015);
#1011 = CIRCLE('',#1012,6.);
#1012 = AXIS2_PLACEMENT_2D('',#1013,#1014);
#1013 = CARTESIAN_POINT('',(0.,0.));
#1014 = DIRECTION('',(1.,0.));
#1015 = ( GEOMETRIC_REPRESENTATION_CONTEXT(2) 
PARAMETRIC_REPRESENTATION_CONTEXT() REPRESENTATION_CONTEXT('2D SPACE',''
  ) );
#1016 = ORIENTED_EDGE('',*,*,#967,.T.);
#1017 = ORIENTED_EDGE('',*,*,#1018,.T.);
#1018 = EDGE_CURVE('',#727,#704,#1019,.T.);
#1019 = SURFACE_CURVE('',#1020,(#1095,#1173),.PCURVE_S1.);
#1020 = B_SPLINE_CURVE_WITH_KNOTS('',7,(#1021,#1022,#1023,#1024,#1025,
    #1026,#1027,#1028,#1029,#1030,#1031,#1032,#1033,#1034,#1035,#1036,
    #1037,#1038,#1039,#1040,#1041,#1042,#1043,#1044,#1045,#1046,#1047,
    #1048,#1049,#1050,#1051,#1052,#1053,#1054,#1055,#1056,#1057,#1058,
    #1059,#1060,#1061,#1062,#1063,#1064,#1065,#1066,#1067,#1068,#1069,
    #1070,#1071,#1072,#1073,#1074,#1075,#1076,#1077,#1078,#1079,#1080,
    #1081,#1082,#1083,#1084,#1085,#1086,#1087,#1088,#1089,#1090,#1091,
    #1092,#1093,#1094),.UNSPECIFIED.,.F.,.F.,(8,6,6,6,6,6,6,6,6,6,6,6,8)
  ,(0.,9.907411414128E-02,0.150945883353,0.287443637971,0.415408243458,
    0.445619869522,0.499981002732,0.554510870877,0.584666313495,
    0.712308541019,0.849923527139,0.899864763608,1.),.UNSPECIFIED.);
#1021 = CARTESIAN_POINT('',(-53.,0.,25.));
#1022 = CARTESIAN_POINT('',(-53.,-0.292711640986,25.));
#1023 = CARTESIAN_POINT('',(-52.98000818153,-0.582586328628,
    25.016660098081));
#1024 = CARTESIAN_POINT('',(-52.94072080163,-0.866694511037,
    25.049398716516));
#1025 = CARTESIAN_POINT('',(-52.88352594578,-1.142155192966,
    25.096934017057));
#1026 = CARTESIAN_POINT('',(-52.81049371267,-1.406251398383,
    25.157305740663));
#1027 = CARTESIAN_POINT('',(-52.72440414577,-1.656478676879,
    25.227921110094));
#1028 = CARTESIAN_POINT('',(-52.57876465756,-2.013066055381,
    25.346307749414));
#1029 = CARTESIAN_POINT('',(-52.5258153592,-2.131896473084,
    25.389174834697));
#1030 = CARTESIAN_POINT('',(-52.47022209011,-2.247074542349,
    25.433975385208));
#1031 = CARTESIAN_POINT('',(-52.41221818134,-2.358665574353,
    25.480477608861));
#1032 = CARTESIAN_POINT('',(-52.35201318664,-2.466743331342,
    25.52846844886));
#1033 = CARTESIAN_POINT('',(-52.28979284763,-2.571389801862,
    25.577753445044));
#1034 = CARTESIAN_POINT('',(-52.05711235026,-2.939274061463,
    25.760789758334));
#1035 = CARTESIAN_POINT('',(-51.87536360664,-3.18320214735,
    25.901407602489));
#1036 = CARTESIAN_POINT('',(-51.68326868817,-3.406062809242,
    26.046905386264));
#1037 = CARTESIAN_POINT('',(-51.48262079613,-3.609550527623,
    26.194921472189));
#1038 = CARTESIAN_POINT('',(-51.27434323601,-3.795292288807,
    26.34364009917));
#1039 = CARTESIAN_POINT('',(-51.05862688089,-3.964657975943,
    26.491530260796));
#1040 = CARTESIAN_POINT('',(-50.62533099682,-4.262912194924,
    26.773066816898));
#1041 = CARTESIAN_POINT('',(-50.40921574797,-4.393321719064,
    26.906697567332));
#1042 = CARTESIAN_POINT('',(-50.18640455407,-4.510654507097,
    27.036244357623));
#1043 = CARTESIAN_POINT('',(-49.95658612899,-4.61514534263,
    27.159808254442));
#1044 = CARTESIAN_POINT('',(-49.71954567972,-4.706590857401,
    27.27480748995));
#1045 = CARTESIAN_POINT('',(-49.47507944286,-4.784546211541,
    27.377875056781));
#1046 = CARTESIAN_POINT('',(-49.16312603614,-4.863220513801,
    27.485780768241));
#1047 = CARTESIAN_POINT('',(-49.10311771904,-4.877445902987,
    27.50550631903));
#1048 = CARTESIAN_POINT('',(-49.04270309462,-4.890853605532,
    27.524289122482));
#1049 = CARTESIAN_POINT('',(-48.98189843768,-4.903428908039,
    27.542072712703));
#1050 = CARTESIAN_POINT('',(-48.92071732536,-4.915158220683,
    27.558802677602));
#1051 = CARTESIAN_POINT('',(-48.85917064121,-4.926028613083,
    27.574426848052));
#1052 = CARTESIAN_POINT('',(-48.68587982511,-4.954018526096,
    27.614929557845));
#1053 = CARTESIAN_POINT('',(-48.57322037696,-4.969206272967,
    27.637249437509));
#1054 = CARTESIAN_POINT('',(-48.45959158774,-4.981463892182,
    27.655490721591));
#1055 = CARTESIAN_POINT('',(-48.34524688802,-4.990711786788,
    27.669372673228));
#1056 = CARTESIAN_POINT('',(-48.23040389144,-4.996900271953,
    27.678702206429));
#1057 = CARTESIAN_POINT('',(-48.11525864152,-5.,27.683375209645));
#1058 = CARTESIAN_POINT('',(-47.88438359993,-5.,27.683375209645));
#1059 = CARTESIAN_POINT('',(-47.7688822651,-4.996880999239,
    27.678673152014));
#1060 = CARTESIAN_POINT('',(-47.65368613187,-4.990654165039,
    27.669285804516));
#1061 = CARTESIAN_POINT('',(-47.53899263513,-4.981349191622,
    27.655318549417));
#1062 = CARTESIAN_POINT('',(-47.42502109025,-4.96901629872,
    27.63696673828));
#1063 = CARTESIAN_POINT('',(-47.31202713044,-4.953735971679,
    27.614514341921));
#1064 = CARTESIAN_POINT('',(-47.13854042485,-4.925627262514,
    27.573849692328));
#1065 = CARTESIAN_POINT('',(-47.07712043391,-4.914750081599,
    27.55821972255));
#1066 = CARTESIAN_POINT('',(-47.01606512171,-4.903017567235,
    27.541489495096));
#1067 = CARTESIAN_POINT('',(-46.955385246,-4.890442576613,27.52371091293
    ));
#1068 = CARTESIAN_POINT('',(-46.89509423094,-4.877038615902,
    27.504938085991));
#1069 = CARTESIAN_POINT('',(-46.83520817106,-4.86282029893,
    27.485227144104));
#1070 = CARTESIAN_POINT('',(-46.52405312813,-4.784241859616,
    27.377477881923));
#1071 = CARTESIAN_POINT('',(-46.28022325676,-4.706447848681,
    27.274644231534));
#1072 = CARTESIAN_POINT('',(-46.04378240036,-4.61523209936,
    27.159944772102));
#1073 = CARTESIAN_POINT('',(-45.81452770635,-4.511036165747,
    27.036719885036));
#1074 = CARTESIAN_POINT('',(-45.59224549051,-4.394061885326,
    26.907533022719));
#1075 = CARTESIAN_POINT('',(-45.37662676607,-4.264077511415,
    26.774271346511));
#1076 = CARTESIAN_POINT('',(-44.94189683945,-3.96521282074,
    26.491942558517));
#1077 = CARTESIAN_POINT('',(-44.72442096086,-3.794494098142,
    26.342838668855));
#1078 = CARTESIAN_POINT('',(-44.51450140291,-3.607135209759,
    26.192895651585));
#1079 = CARTESIAN_POINT('',(-44.31233224446,-3.401728509094,
    26.04367708657));
#1080 = CARTESIAN_POINT('',(-44.11886583604,-3.176601359493,
    25.897044660751));
#1081 = CARTESIAN_POINT('',(-43.93595602852,-2.93001424958,
    25.755428354804));
#1082 = CARTESIAN_POINT('',(-43.70499853781,-2.562483506589,
    25.573620067388));
#1083 = CARTESIAN_POINT('',(-43.6452317066,-2.461516026671,
    25.526259986202));
#1084 = CARTESIAN_POINT('',(-43.58734163564,-2.357364658218,
    25.480108575939));
#1085 = CARTESIAN_POINT('',(-43.53149460818,-2.249956203031,
    25.43533977318));
#1086 = CARTESIAN_POINT('',(-43.47787740916,-2.139224524906,
    25.392143529111));
#1087 = CARTESIAN_POINT('',(-43.42669729463,-2.025110734042,
    25.350725925536));
#1088 = CARTESIAN_POINT('',(-43.28090574762,-1.67187371346,
    25.232276525428));
#1089 = CARTESIAN_POINT('',(-43.19324649566,-1.419723348218,
    25.160397214808));
#1090 = CARTESIAN_POINT('',(-43.11883384918,-1.153423731997,
    25.098894988425));
#1091 = CARTESIAN_POINT('',(-43.06051484895,-0.875489971453,
    25.05042836652));
#1092 = CARTESIAN_POINT('',(-43.02042157755,-0.588659246984,
    25.017018255105));
#1093 = CARTESIAN_POINT('',(-43.,-0.295841159416,25.));
#1094 = CARTESIAN_POINT('',(-43.,-1.7763568394E-15,25.));
#1095 = PCURVE('',#308,#1096);
#1096 = DEFINITIONAL_REPRESENTATION('',(#1097),#1172);
#1097 = B_SPLINE_CURVE_WITH_KNOTS('',7,(#1098,#1099,#1100,#1101,#1102,
    #1103,#1104,#1105,#1106,#1107,#1108,#1109,#1110,#1111,#1112,#1113,
    #1114,#1115,#1116,#1117,#1118,#1119,#1120,#1121,#1122,#1123,#1124,
    #1125,#1126,#1127,#1128,#1129,#1130,#1131,#1132,#1133,#1134,#1135,
    #1136,#1137,#1138,#1139,#1140,#1141,#1142,#1143,#1144,#1145,#1146,
    #1147,#1148,#1149,#1150,#1151,#1152,#1153,#1154,#1155,#1156,#1157,
    #1158,#1159,#1160,#1161,#1162,#1163,#1164,#1165,#1166,#1167,#1168,
    #1169,#1170,#1171),.UNSPECIFIED.,.F.,.F.,(8,6,6,6,6,6,6,6,6,6,6,6,8)
  ,(0.,9.907411414128E-02,0.150945883353,0.287443637971,0.415408243458,
    0.445619869522,0.499981002732,0.554510870877,0.584666313495,
    0.712308541019,0.849923527139,0.899864763608,1.),.UNSPECIFIED.);
#1098 = CARTESIAN_POINT('',(6.28318530718,1.));
#1099 = CARTESIAN_POINT('',(6.234400033682,1.));
#1100 = CARTESIAN_POINT('',(6.186087525839,1.019991818466));
#1101 = CARTESIAN_POINT('',(6.138546720604,1.059279198361));
#1102 = CARTESIAN_POINT('',(6.092083950783,1.116474054211));
#1103 = CARTESIAN_POINT('',(6.047026401569,1.189506287321));
#1104 = CARTESIAN_POINT('',(6.003737775784,1.275595854223));
#1105 = CARTESIAN_POINT('',(5.941116791798,1.42123534244));
#1106 = CARTESIAN_POINT('',(5.920069387108,1.474184640794));
#1107 = CARTESIAN_POINT('',(5.899481906137,1.529777909886));
#1108 = CARTESIAN_POINT('',(5.879343095301,1.587781818658));
#1109 = CARTESIAN_POINT('',(5.859642083879,1.647986813358));
#1110 = CARTESIAN_POINT('',(5.840367972795,1.71020715237));
#1111 = CARTESIAN_POINT('',(5.771884170889,1.942887649738));
#1112 = CARTESIAN_POINT('',(5.725046048813,2.12463639336));
#1113 = CARTESIAN_POINT('',(5.680789716512,2.316731311823));
#1114 = CARTESIAN_POINT('',(5.638938679986,2.517379203865));
#1115 = CARTESIAN_POINT('',(5.599340989182,2.725656763985));
#1116 = CARTESIAN_POINT('',(5.561894623958,2.941373119101));
#1117 = CARTESIAN_POINT('',(5.493537227471,3.374669003174));
#1118 = CARTESIAN_POINT('',(5.462443656124,3.59078425203));
#1119 = CARTESIAN_POINT('',(5.433343064752,3.813595445922));
#1120 = CARTESIAN_POINT('',(5.406397156822,4.043413871009));
#1121 = CARTESIAN_POINT('',(5.381921425209,4.280454320279));
#1122 = CARTESIAN_POINT('',(5.360386692552,4.524920557134));
#1123 = CARTESIAN_POINT('',(5.338129803231,4.836873963855));
#1124 = CARTESIAN_POINT('',(5.334076536466,4.896882280951));
#1125 = CARTESIAN_POINT('',(5.330230393579,4.957296905371));
#1126 = CARTESIAN_POINT('',(5.326600352066,5.018101562318));
#1127 = CARTESIAN_POINT('',(5.323195048117,5.079282674635));
#1128 = CARTESIAN_POINT('',(5.320022787407,5.140829358784));
#1129 = CARTESIAN_POINT('',(5.311817259577,5.314120174889));
#1130 = CARTESIAN_POINT('',(5.307317857816,5.426779623032));
#1131 = CARTESIAN_POINT('',(5.303655070016,5.540408412254));
#1132 = CARTESIAN_POINT('',(5.300875032949,5.654753111972));
#1133 = CARTESIAN_POINT('',(5.299009123747,5.769596108556));
#1134 = CARTESIAN_POINT('',(5.298074523842,5.884741358475));
#1135 = CARTESIAN_POINT('',(5.298074523842,6.115616400061));
#1136 = CARTESIAN_POINT('',(5.299014934613,6.231117734896));
#1137 = CARTESIAN_POINT('',(5.300892406735,6.346313868124));
#1138 = CARTESIAN_POINT('',(5.303689549944,6.46100736487));
#1139 = CARTESIAN_POINT('',(5.307374623587,6.574978909744));
#1140 = CARTESIAN_POINT('',(5.311900963426,6.687972869559));
#1141 = CARTESIAN_POINT('',(5.320139951459,6.861459575149));
#1142 = CARTESIAN_POINT('',(5.323313651727,6.922879566089));
#1143 = CARTESIAN_POINT('',(5.326719297822,6.983934878289));
#1144 = CARTESIAN_POINT('',(5.330348627871,7.044614753995));
#1145 = CARTESIAN_POINT('',(5.334193055239,7.104905769059));
#1146 = CARTESIAN_POINT('',(5.33824365788,7.164791828935));
#1147 = CARTESIAN_POINT('',(5.360470065238,7.475946871862));
#1148 = CARTESIAN_POINT('',(5.381957495385,7.719776743236));
#1149 = CARTESIAN_POINT('',(5.406370364654,7.956217599635));
#1150 = CARTESIAN_POINT('',(5.433241599825,8.18547229365));
#1151 = CARTESIAN_POINT('',(5.462257878829,8.407754509483));
#1152 = CARTESIAN_POINT('',(5.493258185237,8.623373233929));
#1153 = CARTESIAN_POINT('',(5.561780210865,9.058103160543));
#1154 = CARTESIAN_POINT('',(5.599528858497,9.275579039131));
#1155 = CARTESIAN_POINT('',(5.639463018981,9.485498597088));
#1156 = CARTESIAN_POINT('',(5.681688306215,9.687667755531));
#1157 = CARTESIAN_POINT('',(5.726361398847,9.881134163955));
#1158 = CARTESIAN_POINT('',(5.773663808806,10.064043971476));
#1159 = CARTESIAN_POINT('',(5.842003869535,10.295001462188));
#1160 = CARTESIAN_POINT('',(5.860587038515,10.354768293398));
#1161 = CARTESIAN_POINT('',(5.879566378644,10.412658364356));
#1162 = CARTESIAN_POINT('',(5.898951671994,10.468505391815));
#1163 = CARTESIAN_POINT('',(5.918752679861,10.522122590835));
#1164 = CARTESIAN_POINT('',(5.938979483665,10.573302705366));
#1165 = CARTESIAN_POINT('',(6.001074091835,10.719094252379));
#1166 = CARTESIAN_POINT('',(6.044727480294,10.80675350434));
#1167 = CARTESIAN_POINT('',(6.090182732651,10.881166150813));
#1168 = CARTESIAN_POINT('',(6.137074666678,10.939485151042));
#1169 = CARTESIAN_POINT('',(6.185075370661,10.979578422443));
#1170 = CARTESIAN_POINT('',(6.233878447277,11.));
#1171 = CARTESIAN_POINT('',(6.28318530718,11.));
#1172 = ( GEOMETRIC_REPRESENTATION_CONTEXT(2) 
PARAMETRIC_REPRESENTATION_CONTEXT() REPRESENTATION_CONTEXT('2D SPACE',''
  ) );
#1173 = PCURVE('',#884,#1174);
#1174 = DEFINITIONAL_REPRESENTATION('',(#1175),#1250);
#1175 = B_SPLINE_CURVE_WITH_KNOTS('',7,(#1176,#1177,#1178,#1179,#1180,
    #1181,#1182,#1183,#1184,#1185,#1186,#1187,#1188,#1189,#1190,#1191,
    #1192,#1193,#1194,#1195,#1196,#1197,#1198,#1199,#1200,#1201,#1202,
    #1203,#1204,#1205,#1206,#1207,#1208,#1209,#1210,#1211,#1212,#1213,
    #1214,#1215,#1216,#1217,#1218,#1219,#1220,#1221,#1222,#1223,#1224,
    #1225,#1226,#1227,#1228,#1229,#1230,#1231,#1232,#1233,#1234,#1235,
    #1236,#1237,#1238,#1239,#1240,#1241,#1242,#1243,#1244,#1245,#1246,
    #1247,#1248,#1249),.UNSPECIFIED.,.F.,.F.,(8,6,6,6,6,6,6,6,6,6,6,6,8)
  ,(0.,9.907411414128E-02,0.150945883353,0.287443637971,0.415408243458,
    0.445619869522,0.499981002732,0.554510870877,0.584666313495,
    0.712308541019,0.849923527139,0.899864763608,1.),.UNSPECIFIED.);
#1176 = CARTESIAN_POINT('',(3.14159265359,23.));
#1177 = CARTESIAN_POINT('',(3.200134981787,23.));
#1178 = CARTESIAN_POINT('',(3.258109918769,23.016660098081));
#1179 = CARTESIAN_POINT('',(3.31525927546,23.049398716516));
#1180 = CARTESIAN_POINT('',(3.371305889526,23.096934017057));
#1181 = CARTESIAN_POINT('',(3.425937786635,23.157305740663));
#1182 = CARTESIAN_POINT('',(3.478778205792,23.227921110094));
#1183 = CARTESIAN_POINT('',(3.555814669635,23.346307749414));
#1184 = CARTESIAN_POINT('',(3.581820512876,23.389174834697));
#1185 = CARTESIAN_POINT('',(3.60738032796,23.433975385208));
#1186 = CARTESIAN_POINT('',(3.632514107958,23.480477608861));
#1187 = CARTESIAN_POINT('',(3.657241263319,23.52846844886));
#1188 = CARTESIAN_POINT('',(3.681581355666,23.577753445044));
#1189 = CARTESIAN_POINT('',(3.76863973661,23.760789758334));
#1190 = CARTESIAN_POINT('',(3.829300959115,23.901407602489));
#1191 = CARTESIAN_POINT('',(3.887917309252,24.046905386264));
#1192 = CARTESIAN_POINT('',(3.944851927339,24.194921472189));
#1193 = CARTESIAN_POINT('',(4.000488941369,24.34364009917));
#1194 = CARTESIAN_POINT('',(4.055232872608,24.491530260796));
#1195 = CARTESIAN_POINT('',(4.160437606779,24.773066816898));
#1196 = CARTESIAN_POINT('',(4.210829630578,24.906697567332));
#1197 = CARTESIAN_POINT('',(4.261057450508,25.036244357623));
#1198 = CARTESIAN_POINT('',(4.311394413574,25.159808254442));
#1199 = CARTESIAN_POINT('',(4.362065859478,25.27480748995));
#1200 = CARTESIAN_POINT('',(4.413287333887,25.377875056781));
#1201 = CARTESIAN_POINT('',(4.477631587337,25.485780768241));
#1202 = CARTESIAN_POINT('',(4.489964604809,25.50550631903));
#1203 = CARTESIAN_POINT('',(4.502339459233,25.524289122482));
#1204 = CARTESIAN_POINT('',(4.514755398517,25.542072712703));
#1205 = CARTESIAN_POINT('',(4.527212339926,25.558802677602));
#1206 = CARTESIAN_POINT('',(4.539710849523,25.574426848052));
#1207 = CARTESIAN_POINT('',(4.574818194725,25.614929557845));
#1208 = CARTESIAN_POINT('',(4.597546143051,25.637249437509));
#1209 = CARTESIAN_POINT('',(4.620390821055,25.655490721591));
#1210 = CARTESIAN_POINT('',(4.643319586088,25.669372673228));
#1211 = CARTESIAN_POINT('',(4.666308205856,25.678702206429));
#1212 = CARTESIAN_POINT('',(4.68933725208,25.683375209645));
#1213 = CARTESIAN_POINT('',(4.735512260397,25.683375209645));
#1214 = CARTESIAN_POINT('',(4.758612523529,25.678673152014));
#1215 = CARTESIAN_POINT('',(4.781671957772,25.669285804516));
#1216 = CARTESIAN_POINT('',(4.80467103875,25.655318549417));
#1217 = CARTESIAN_POINT('',(4.827585369993,25.63696673828));
#1218 = CARTESIAN_POINT('',(4.850382027185,25.614514341921));
#1219 = CARTESIAN_POINT('',(4.885531841721,25.573849692328));
#1220 = CARTESIAN_POINT('',(4.898005644325,25.55821972255));
#1221 = CARTESIAN_POINT('',(4.910438009995,25.541489495096));
#1222 = CARTESIAN_POINT('',(4.922829512419,25.52371091293));
#1223 = CARTESIAN_POINT('',(4.935180082906,25.504938085991));
#1224 = CARTESIAN_POINT('',(4.947488990116,25.485227144104));
#1225 = CARTESIAN_POINT('',(5.011673733432,25.377477881923));
#1226 = CARTESIAN_POINT('',(5.062764912402,25.274644231534));
#1227 = CARTESIAN_POINT('',(5.113308999127,25.159944772102));
#1228 = CARTESIAN_POINT('',(5.163520068703,25.036719885036));
#1229 = CARTESIAN_POINT('',(5.213621879172,24.907533022719));
#1230 = CARTESIAN_POINT('',(5.263885669378,24.774271346511));
#1231 = CARTESIAN_POINT('',(5.369395898726,24.491942558517));
#1232 = CARTESIAN_POINT('',(5.424581087498,24.342838668855));
#1233 = CARTESIAN_POINT('',(5.480674224489,24.192895651585));
#1234 = CARTESIAN_POINT('',(5.538090235956,24.04367708657));
#1235 = CARTESIAN_POINT('',(5.597222933308,23.897044660751));
#1236 = CARTESIAN_POINT('',(5.658444175775,23.755428354804));
#1237 = CARTESIAN_POINT('',(5.745258969343,23.573620067388));
#1238 = CARTESIAN_POINT('',(5.768716829338,23.526259986202));
#1239 = CARTESIAN_POINT('',(5.7925343352,23.480108575939));
#1240 = CARTESIAN_POINT('',(5.816729012214,23.43533977318));
#1241 = CARTESIAN_POINT('',(5.841318261636,23.392143529111));
#1242 = CARTESIAN_POINT('',(5.866319969066,23.350725925536));
#1243 = CARTESIAN_POINT('',(5.942748123012,23.232276525428));
#1244 = CARTESIAN_POINT('',(5.996052493744,23.160397214808));
#1245 = CARTESIAN_POINT('',(6.05117840144,23.098894988425));
#1246 = CARTESIAN_POINT('',(6.107748967166,23.050428366521));
#1247 = CARTESIAN_POINT('',(6.165453459079,23.017018255105));
#1248 = CARTESIAN_POINT('',(6.224017075296,23.));
#1249 = CARTESIAN_POINT('',(6.28318530718,23.));
#1250 = ( GEOMETRIC_REPRESENTATION_CONTEXT(2) 
PARAMETRIC_REPRESENTATION_CONTEXT() REPRESENTATION_CONTEXT('2D SPACE',''
  ) );
#1251 = ORIENTED_EDGE('',*,*,#703,.T.);
#1252 = ORIENTED_EDGE('',*,*,#414,.T.);
#1253 = ADVANCED_FACE('',(#1254),#884,.T.);
#1254 = FACE_BOUND('',#1255,.T.);
#1255 = EDGE_LOOP('',(#1256,#1257,#1280,#1307,#1308));
#1256 = ORIENTED_EDGE('',*,*,#726,.F.);
#1257 = ORIENTED_EDGE('',*,*,#1258,.F.);
#1258 = EDGE_CURVE('',#1259,#704,#1261,.T.);
#1259 = VERTEX_POINT('',#1260);
#1260 = CARTESIAN_POINT('',(-43.,-1.224646799147E-15,2.));
#1261 = SEAM_CURVE('',#1262,(#1266,#1273),.PCURVE_S1.);
#1262 = LINE('',#1263,#1264);
#1263 = CARTESIAN_POINT('',(-43.,-1.224646799147E-15,2.));
#1264 = VECTOR('',#1265,1.);
#1265 = DIRECTION('',(0.,0.,1.));
#1266 = PCURVE('',#884,#1267);
#1267 = DEFINITIONAL_REPRESENTATION('',(#1268),#1272);
#1268 = LINE('',#1269,#1270);
#1269 = CARTESIAN_POINT('',(6.28318530718,-0.));
#1270 = VECTOR('',#1271,1.);
#1271 = DIRECTION('',(0.,1.));
#1272 = ( GEOMETRIC_REPRESENTATION_CONTEXT(2) 
PARAMETRIC_REPRESENTATION_CONTEXT() REPRESENTATION_CONTEXT('2D SPACE',''
  ) );
#1273 = PCURVE('',#884,#1274);
#1274 = DEFINITIONAL_REPRESENTATION('',(#1275),#1279);
#1275 = LINE('',#1276,#1277);
#1276 = CARTESIAN_POINT('',(0.,-0.));
#1277 = VECTOR('',#1278,1.);
#1278 = DIRECTION('',(0.,1.));
#1279 = ( GEOMETRIC_REPRESENTATION_CONTEXT(2) 
PARAMETRIC_REPRESENTATION_CONTEXT() REPRESENTATION_CONTEXT('2D SPACE',''
  ) );
#1280 = ORIENTED_EDGE('',*,*,#1281,.T.);
#1281 = EDGE_CURVE('',#1259,#1259,#1282,.T.);
#1282 = SURFACE_CURVE('',#1283,(#1288,#1295),.PCURVE_S1.);
#1283 = CIRCLE('',#1284,5.);
#1284 = AXIS2_PLACEMENT_3D('',#1285,#1286,#1287);
#1285 = CARTESIAN_POINT('',(-48.,0.,2.));
#1286 = DIRECTION('',(0.,0.,1.));
#1287 = DIRECTION('',(1.,0.,-0.));
#1288 = PCURVE('',#884,#1289);
#1289 = DEFINITIONAL_REPRESENTATION('',(#1290),#1294);
#1290 = LINE('',#1291,#1292);
#1291 = CARTESIAN_POINT('',(0.,0.));
#1292 = VECTOR('',#1293,1.);
#1293 = DIRECTION('',(1.,0.));
#1294 = ( GEOMETRIC_REPRESENTATION_CONTEXT(2) 
PARAMETRIC_REPRESENTATION_CONTEXT() REPRESENTATION_CONTEXT('2D SPACE',''
  ) );
#1295 = PCURVE('',#1296,#1301);
#1296 = PLANE('',#1297);
#1297 = AXIS2_PLACEMENT_3D('',#1298,#1299,#1300);
#1298 = CARTESIAN_POINT('',(-48.,0.,2.));
#1299 = DIRECTION('',(0.,0.,1.));
#1300 = DIRECTION('',(1.,0.,0.));
#1301 = DEFINITIONAL_REPRESENTATION('',(#1302),#1306);
#1302 = CIRCLE('',#1303,5.);
#1303 = AXIS2_PLACEMENT_2D('',#1304,#1305);
#1304 = CARTESIAN_POINT('',(0.,0.));
#1305 = DIRECTION('',(1.,0.));
#1306 = ( GEOMETRIC_REPRESENTATION_CONTEXT(2) 
PARAMETRIC_REPRESENTATION_CONTEXT() REPRESENTATION_CONTEXT('2D SPACE',''
  ) );
#1307 = ORIENTED_EDGE('',*,*,#1258,.T.);
#1308 = ORIENTED_EDGE('',*,*,#1018,.F.);
#1309 = ADVANCED_FACE('',(#1310),#1005,.F.);
#1310 = FACE_BOUND('',#1311,.T.);
#1311 = EDGE_LOOP('',(#1312));
#1312 = ORIENTED_EDGE('',*,*,#990,.F.);
#1313 = ADVANCED_FACE('',(#1314),#689,.T.);
#1314 = FACE_BOUND('',#1315,.T.);
#1315 = EDGE_LOOP('',(#1316));
#1316 = ORIENTED_EDGE('',*,*,#674,.T.);
#1317 = ADVANCED_FACE('',(#1318,#1349),#1296,.T.);
#1318 = FACE_BOUND('',#1319,.T.);
#1319 = EDGE_LOOP('',(#1320));
#1320 = ORIENTED_EDGE('',*,*,#1321,.T.);
#1321 = EDGE_CURVE('',#1322,#1322,#1324,.T.);
#1322 = VERTEX_POINT('',#1323);
#1323 = CARTESIAN_POINT('',(-41.,-1.714505518806E-15,2.));
#1324 = SURFACE_CURVE('',#1325,(#1330,#1337),.PCURVE_S1.);
#1325 = CIRCLE('',#1326,7.);
#1326 = AXIS2_PLACEMENT_3D('',#1327,#1328,#1329);
#1327 = CARTESIAN_POINT('',(-48.,0.,2.));
#1328 = DIRECTION('',(0.,0.,1.));
#1329 = DIRECTION('',(1.,0.,0.));
#1330 = PCURVE('',#1296,#1331);
#1331 = DEFINITIONAL_REPRESENTATION('',(#1332),#1336);
#1332 = CIRCLE('',#1333,7.);
#1333 = AXIS2_PLACEMENT_2D('',#1334,#1335);
#1334 = CARTESIAN_POINT('',(0.,0.));
#1335 = DIRECTION('',(1.,0.));
#1336 = ( GEOMETRIC_REPRESENTATION_CONTEXT(2) 
PARAMETRIC_REPRESENTATION_CONTEXT() REPRESENTATION_CONTEXT('2D SPACE',''
  ) );
#1337 = PCURVE('',#1338,#1343);
#1338 = CYLINDRICAL_SURFACE('',#1339,7.);
#1339 = AXIS2_PLACEMENT_3D('',#1340,#1341,#1342);
#1340 = CARTESIAN_POINT('',(-48.,0.,0.));
#1341 = DIRECTION('',(0.,0.,1.));
#1342 = DIRECTION('',(1.,0.,0.));
#1343 = DEFINITIONAL_REPRESENTATION('',(#1344),#1348);
#1344 = LINE('',#1345,#1346);
#1345 = CARTESIAN_POINT('',(0.,2.));
#1346 = VECTOR('',#1347,1.);
#1347 = DIRECTION('',(1.,0.));
#1348 = ( GEOMETRIC_REPRESENTATION_CONTEXT(2) 
PARAMETRIC_REPRESENTATION_CONTEXT() REPRESENTATION_CONTEXT('2D SPACE',''
  ) );
#1349 = FACE_BOUND('',#1350,.T.);
#1350 = EDGE_LOOP('',(#1351));
#1351 = ORIENTED_EDGE('',*,*,#1281,.F.);
#1352 = ADVANCED_FACE('',(#1353),#1338,.T.);
#1353 = FACE_BOUND('',#1354,.T.);
#1354 = EDGE_LOOP('',(#1355,#1356,#1379,#1406));
#1355 = ORIENTED_EDGE('',*,*,#1321,.F.);
#1356 = ORIENTED_EDGE('',*,*,#1357,.F.);
#1357 = EDGE_CURVE('',#1358,#1322,#1360,.T.);
#1358 = VERTEX_POINT('',#1359);
#1359 = CARTESIAN_POINT('',(-41.,-1.714505518806E-15,0.));
#1360 = SEAM_CURVE('',#1361,(#1365,#1372),.PCURVE_S1.);
#1361 = LINE('',#1362,#1363);
#1362 = CARTESIAN_POINT('',(-41.,-1.714505518806E-15,0.));
#1363 = VECTOR('',#1364,1.);
#1364 = DIRECTION('',(0.,0.,1.));
#1365 = PCURVE('',#1338,#1366);
#1366 = DEFINITIONAL_REPRESENTATION('',(#1367),#1371);
#1367 = LINE('',#1368,#1369);
#1368 = CARTESIAN_POINT('',(0.,-0.));
#1369 = VECTOR('',#1370,1.);
#1370 = DIRECTION('',(0.,1.));
#1371 = ( GEOMETRIC_REPRESENTATION_CONTEXT(2) 
PARAMETRIC_REPRESENTATION_CONTEXT() REPRESENTATION_CONTEXT('2D SPACE',''
  ) );
#1372 = PCURVE('',#1338,#1373);
#1373 = DEFINITIONAL_REPRESENTATION('',(#1374),#1378);
#1374 = LINE('',#1375,#1376);
#1375 = CARTESIAN_POINT('',(6.28318530718,-0.));
#1376 = VECTOR('',#1377,1.);
#1377 = DIRECTION('',(0.,1.));
#1378 = ( GEOMETRIC_REPRESENTATION_CONTEXT(2) 
PARAMETRIC_REPRESENTATION_CONTEXT() REPRESENTATION_CONTEXT('2D SPACE',''
  ) );
#1379 = ORIENTED_EDGE('',*,*,#1380,.T.);
#1380 = EDGE_CURVE('',#1358,#1358,#1381,.T.);
#1381 = SURFACE_CURVE('',#1382,(#1387,#1394),.PCURVE_S1.);
#1382 = CIRCLE('',#1383,7.);
#1383 = AXIS2_PLACEMENT_3D('',#1384,#1385,#1386);
#1384 = CARTESIAN_POINT('',(-48.,0.,0.));
#1385 = DIRECTION('',(0.,0.,1.));
#1386 = DIRECTION('',(1.,0.,0.));
#1387 = PCURVE('',#1338,#1388);
#1388 = DEFINITIONAL_REPRESENTATION('',(#1389),#1393);
#1389 = LINE('',#1390,#1391);
#1390 = CARTESIAN_POINT('',(0.,0.));
#1391 = VECTOR('',#1392,1.);
#1392 = DIRECTION('',(1.,0.));
#1393 = ( GEOMETRIC_REPRESENTATION_CONTEXT(2) 
PARAMETRIC_REPRESENTATION_CONTEXT() REPRESENTATION_CONTEXT('2D SPACE',''
  ) );
#1394 = PCURVE('',#1395,#1400);
#1395 = PLANE('',#1396);
#1396 = AXIS2_PLACEMENT_3D('',#1397,#1398,#1399);
#1397 = CARTESIAN_POINT('',(-48.,0.,0.));
#1398 = DIRECTION('',(0.,0.,1.));
#1399 = DIRECTION('',(1.,0.,0.));
#1400 = DEFINITIONAL_REPRESENTATION('',(#1401),#1405);
#1401 = CIRCLE('',#1402,7.);
#1402 = AXIS2_PLACEMENT_2D('',#1403,#1404);
#1403 = CARTESIAN_POINT('',(0.,0.));
#1404 = DIRECTION('',(1.,0.));
#1405 = ( GEOMETRIC_REPRESENTATION_CONTEXT(2) 
PARAMETRIC_REPRESENTATION_CONTEXT() REPRESENTATION_CONTEXT('2D SPACE',''
  ) );
#1406 = ORIENTED_EDGE('',*,*,#1357,.T.);
#1407 = ADVANCED_FACE('',(#1408),#1395,.F.);
#1408 = FACE_BOUND('',#1409,.T.);
#1409 = EDGE_LOOP('',(#1410));
#1410 = ORIENTED_EDGE('',*,*,#1380,.F.);
#1411 = ( GEOMETRIC_REPRESENTATION_CONTEXT(3) 
GLOBAL_UNCERTAINTY_ASSIGNED_CONTEXT((#1415)) 
GLOBAL_UNIT_ASSIGNED_CONTEXT((#1412,#1413,#1414)) REPRESENTATION_CONTEXT
('Context #1','3D Context with UNIT and UNCERTAINTY') );
#1412 = ( LENGTH_UNIT() NAMED_UNIT(*) SI_UNIT(.MILLI.,.METRE.) );
#1413 = ( NAMED_UNIT(*) PLANE_ANGLE_UNIT() SI_UNIT($,.RADIAN.) );
#1414 = ( NAMED_UNIT(*) SI_UNIT($,.STERADIAN.) SOLID_ANGLE_UNIT() );
#1415 = UNCERTAINTY_MEASURE_WITH_UNIT(LENGTH_MEASURE(1.E-07),#1412,
  'distance_accuracy_value','confusion accuracy');
#1416 = PRODUCT_RELATED_PRODUCT_CATEGORY('part',$,(#7));
ENDSEC;
END-ISO-10303-21;
